<?xml version="1.0" standalone="no"?>
<!DOCTYPE svg PUBLIC "-//W3C//DTD SVG 1.1//EN" "http://www.w3.org/Graphics/SVG/1.1/DTD/svg11.dtd" >
<svg xmlns="http://www.w3.org/2000/svg">
<metadata>Generated by IcoMoon</metadata>
<defs>
<font id="icomoon" horiz-adv-x="1024">
<font-face units-per-em="1024" ascent="960" descent="-64" />
<missing-glyph horiz-adv-x="1024" />
<glyph unicode="&#x20;" horiz-adv-x="512" d="" />
<glyph unicode="&#xe900;" glyph-name="airport" d="M1008.992 60.062h-398.305l-53.445 48.063c-6.164 5.539-15.648 5.039-21.195-1.133-5.539-6.156-5.031-15.648 1.125-21.188l28.633-25.742h-463.984l100.523 102.766c6.852 7 16.398 11.023 26.195 11.023h196.664c9.063 0 17.766-3.336 24.508-9.398l33.047-29.719c6.164-5.531 15.648-5.039 21.195 1.133 5.539 6.156 5.031 15.648-1.133 21.188l-33.039 29.711c-12.258 11.023-28.086 17.094-44.578 17.094h-74.023l-0.156 0.555c-12.734 45.328-51.211 78.523-96.781 85.523v277.477h17.813c16.336 0 29.633 13.289 29.633 29.633v28.391c15.969 1.438 28.531 14.883 28.531 31.219v66.281c0 17.297-14.070 31.367-31.367 31.367h-24.195l8.109 45.656c1.852 10.453-0.992 21.117-7.813 29.25-6.82 8.141-16.828 12.805-27.445 12.805h-25.688v6.977c0 8.289-6.719 15.008-15.008 15.008s-15.008-6.719-15.008-15.008v-6.977h-25.695c-10.594 0-20.586-4.648-27.406-12.758-6.82-8.125-9.688-18.766-7.859-29.227l8.016-45.727h-24.086c-17.297 0-31.367-14.070-31.367-31.367v-66.281c0-16.336 12.555-29.781 28.523-31.219v-28.398c0-16.336 13.289-29.633 29.633-29.633h17.82v-72.844c0-8.289 6.719-15.008 15.008-15.008s15.008 6.719 15.008 15.008v72.844h34.836v-276.086h-34.836v133.734c0 8.289-6.719 15.008-15.008 15.008s-15.008-6.719-15.008-15.008v-133.734h-21.805c-64.805 0-117.523-52.719-117.523-117.523v-113.742h-5.047c-8.289 0-15.008-6.711-15.008-15s6.719-15.008 15.008-15.008h993.984c8.289 0 15.008 6.719 15.008 15.008s-6.719 15.008-15.008 15.008zM160.398 805.203c-0.398 2.32 0.633 3.961 1.281 4.734s2.086 2.070 4.43 2.070h81.391c2.359 0 3.797-1.305 4.445-2.078s1.672-2.414 1.266-4.727l-9.039-50.898h-74.844zM113.422 722.937c0 0.742 0.602 1.352 1.352 1.352h184.070c0.75 0 1.359-0.609 1.359-1.352v-66.281c0-0.75-0.609-1.352-1.359-1.352h-184.070c-0.75 0-1.352 0.602-1.352 1.352zM141.938 625.289h129.734v-27.867h-129.734zM50.063 173.805c0 48.25 39.258 87.508 87.516 87.508h98.719c37.094 0 70.281-23.258 83.32-57.453h-91.078c-17.82 0-35.188-7.305-47.656-20.047l-121.039-123.75h-9.781zM274.422 689.797c0-8.289-6.719-15.008-15.008-15.008s-15.008 6.719-15.008 15.008c0 8.289 6.719 15.008 15.008 15.008s15.008-6.719 15.008-15.008zM223.023 689.797c0-8.289-6.719-15.008-15.008-15.008s-15.008 6.719-15.008 15.008c0 8.289 6.719 15.008 15.008 15.008s15.008-6.719 15.008-15.008zM169.211 689.797c0-8.289-6.719-15.008-15.008-15.008-8.281 0-15 6.719-15 15.008s6.719 15.008 15 15.008c8.289 0 15.008-6.719 15.008-15.008zM401.313 417.906l-20.75-7.242c-15.227-5.109-25.445-19.32-25.445-35.406 0-3.453 0.484-6.898 1.438-10.258 4.563-16 19.32-27.117 35.984-27.117h0.297l149.797 1.422c6.859 0.047 13.703 1.039 20.273 2.922l100.883 28.406 2.805-9.797c2.234-7.82 7.383-14.297 14.492-18.242 4.586-2.547 9.625-3.844 14.734-3.844 2.805 0 5.641 0.391 8.414 1.188l64.867 18.555c16.141 4.617 25.516 21.5 20.898 37.641l-2.656 9.281 184.555 51.969c18.891 5.406 31.984 21.563 33.336 41.164 1.367 19.609-9.367 37.43-27.344 45.391l-41.031 18.18c-34.055 15.102-72.281 16.922-107.625 5.117-0.063-0.016-0.133-0.039-0.195-0.063l-95.984-33.492c-7.82-2.734-11.953-11.289-9.227-19.117 2.734-7.82 11.289-11.953 19.117-9.219l95.883 33.461c22.5 7.484 46.445 8.055 69.008 1.867l-13.875-3.828c-7.984-2.203-12.672-10.461-10.469-18.453 1.836-6.656 7.875-11.016 14.453-11.016 1.32 0 2.664 0.172 4 0.547l51.25 14.133 12.539-5.555c9.602-4.258 9.75-13.227 9.563-15.875-0.18-2.641-1.563-11.5-11.594-14.367l-186.758-52.594c-7.414 9.484-20.102 14.070-32.367 10.563l-64.867-18.555c-7.813-2.242-14.297-7.391-18.242-14.5-1.922-3.469-3.125-7.203-3.602-11.031l-103.164-29.047c-4.016-1.148-8.148-1.75-12.313-1.781l-149.813-1.414c-0.023 0-0.039 0-0.063 0-3.289 0-6.203 2.18-7.094 5.32-0.188 0.664-0.289 1.367-0.289 2.039 0 3.172 2.008 5.969 5.008 6.969 0.070 0.023 0.141 0.047 0.219 0.070l281.102 98.102c7.82 2.727 11.953 11.289 9.219 19.109-2.727 7.82-11.281 11.953-19.109 9.219l-149.477-52.156-86.359 75.734c-13.094 11.539-30.938 15.555-47.711 10.758l-23.836-6.82c-5.352-1.531-9.742-5.555-11.742-10.75-1.992-5.203-1.422-11.125 1.523-15.852zM687.711 396.609c0.086 0.156 0.188 0.188 0.258 0.203l64.867 18.555c0.039 0.016 0.078 0.023 0.117 0.023 0.188 0 0.359-0.125 0.414-0.313l7.781-27.195c0.063-0.227-0.070-0.461-0.297-0.531l-64.867-18.555c-0.063-0.023-0.172-0.055-0.328 0.039-0.156 0.086-0.188 0.195-0.211 0.258l-7.773 27.188c-0.023 0.063-0.055 0.172 0.039 0.328zM386.281 514.203c6.898 1.984 14.234 0.32 19.648-4.438l73.609-64.563-49.172-17.156-52.375 83.789zM822.656 480.281c7.891 2.531 12.234 10.984 9.695 18.875-2.531 7.891-10.984 12.234-18.875 9.695-7.891-2.531-12.234-10.984-9.695-18.875 2.531-7.891 10.984-12.234 18.875-9.695zM775.117 465.016c7.891 2.531 12.234 10.977 9.703 18.875-2.539 7.891-10.984 12.234-18.875 9.695-7.891-2.531-12.234-10.984-9.703-18.875s10.984-12.234 18.875-9.695zM727.578 449.742c7.891 2.539 12.234 10.984 9.703 18.875-2.539 7.891-10.984 12.234-18.875 9.703-7.891-2.539-12.234-10.984-9.703-18.875s10.984-12.234 18.875-9.703zM670.867 463.055c-7.891-2.531-12.234-10.984-9.703-18.875 2.539-7.891 10.984-12.234 18.875-9.703 7.891 2.539 12.234 10.984 9.703 18.875-2.539 7.891-10.984 12.234-18.875 9.703zM623.328 447.789c-7.891-2.531-12.234-10.984-9.703-18.875 2.539-7.891 10.984-12.234 18.875-9.703 7.891 2.539 12.234 10.984 9.703 18.875s-10.984 12.234-18.875 9.703zM575.789 432.523c-7.891-2.539-12.234-10.984-9.703-18.875 2.539-7.891 10.984-12.234 18.875-9.703 7.891 2.539 12.234 10.984 9.703 18.875s-10.984 12.234-18.875 9.703zM250.305 152.82h-14.477c-8.289 0-15.008-6.719-15.008-15.008s6.719-15.008 15.008-15.008h14.477c8.289 0 15.008 6.719 15.008 15.008s-6.719 15.008-15.008 15.008zM307.031 152.82h-14.484c-8.281 0-15-6.719-15-15.008s6.719-15.008 15-15.008h14.484c8.281 0 15 6.719 15 15.008s-6.719 15.008-15 15.008zM363.75 152.82h-14.477c-8.289 0-15.008-6.719-15.008-15.008s6.719-15.008 15.008-15.008h14.477c8.289 0 15.008 6.719 15.008 15.008s-6.719 15.008-15.008 15.008zM420.469 152.82h-14.477c-8.289 0-15.008-6.719-15.008-15.008s6.719-15.008 15.008-15.008h14.477c8.289 0 15.008 6.719 15.008 15.008s-6.719 15.008-15.008 15.008zM250.305 105.859h-14.477c-8.289 0-15.008-6.719-15.008-15 0-8.289 6.719-15.008 15.008-15.008h14.477c8.289 0 15.008 6.719 15.008 15.008 0 8.281-6.719 15-15.008 15zM188.867 105.859h-14.477c-8.289 0-15.008-6.719-15.008-15 0-8.289 6.719-15.008 15.008-15.008h14.477c8.289 0 15.008 6.719 15.008 15.008 0 8.281-6.719 15-15.008 15zM469.117 105.859c-8.289 0-15.008-6.719-15.008-15 0-8.289 6.719-15.008 15.008-15.008h14.484c8.281 0 15 6.719 15 15.008 0 8.281-6.719 15-15 15zM307.031 105.859h-14.484c-8.281 0-15-6.719-15-15 0-8.289 6.719-15.008 15-15.008h14.484c8.281 0 15 6.719 15 15.008 0 8.281-6.719 15-15 15zM363.75 105.859h-14.477c-8.289 0-15.008-6.719-15.008-15 0-8.289 6.719-15.008 15.008-15.008h14.477c8.289 0 15.008 6.719 15.008 15.008 0 8.281-6.719 15-15.008 15zM420.469 105.859h-14.477c-8.289 0-15.008-6.719-15.008-15 0-8.289 6.719-15.008 15.008-15.008h14.477c8.289 0 15.008 6.719 15.008 15.008 0 8.281-6.719 15-15.008 15z" />
<glyph unicode="&#xe901;" glyph-name="app" d="M210.8 170.32c-7.735 2.541-16.638 4.007-25.883 4.007-0.379 0-0.757-0.002-1.135-0.007l0.057 0.001c-24.8 0-49.76-8.72-56.96-21.2-16.48-28.64-36.72-62.48-36.72-62.48-4.242-8.402-6.727-18.314-6.727-28.806 0-35.921 29.119-65.040 65.040-65.040 22.204 0 41.81 11.127 53.545 28.109l0.142 0.217s36.64 64 58.24 100.080c4.16 6.32-17.040 34.8-49.6 45.12zM174.8 41.28c-5.903-9.655-16.386-16.001-28.352-16.001-0.073 0-0.146 0-0.219 0.001h0.011c-0.015 0-0.032 0-0.050 0-18.203 0-32.96 14.757-32.96 32.96 0 6.035 1.622 11.692 4.454 16.557l-0.084-0.157s19.84 33.040 36.080 61.28c8.221 4.303 17.959 6.828 28.286 6.828 0.659 0 1.316-0.010 1.97-0.031l-0.096 0.002c0.306 0.006 0.667 0.010 1.028 0.010 5.714 0 11.223-0.881 16.397-2.515l-0.385 0.105c9.011-3.069 16.752-7.768 23.24-13.797l-0.040 0.037c-21.36-36.64-49.040-84.88-49.28-85.28zM544 336h-152l264 472c5.919 9.276 9.434 20.585 9.434 32.715 0 22.846-12.469 42.78-30.974 53.366l-0.301 0.159c-9.705 5.782-21.401 9.201-33.896 9.201-0.093 0-0.185 0-0.278-0.001h0.014c-0.173 0.002-0.377 0.003-0.581 0.003-23.429 0-43.943-12.48-55.257-31.155l-0.162-0.288-32-56-32 56c-11.457 18.961-31.958 31.443-55.374 31.443-0.22 0-0.44-0.001-0.66-0.003h0.033c-0.048 0-0.105 0-0.163 0-12.502 0-24.205-3.418-34.227-9.37l0.31 0.17c-18.838-10.737-31.333-30.688-31.333-53.558 0-12.116 3.507-23.413 9.562-32.931l-0.148 0.249 72-120-208-352h-168c-35.548-0.933-64.010-29.972-64.010-65.659 0-0.401 0.004-0.802 0.011-1.201l-0.001 0.060c0-35.92 28.080-61.2 64-61.2h568c27.76 56.88-30.16 128-88 128zM64 240c-16 0-32 9.040-32 29.2-0.008 0.278-0.013 0.605-0.013 0.934 0 18.063 14.118 32.828 31.921 33.862l0.091 0.004h186.24l9.28 16 208 352 9.76 16-9.84 16-72 120c-3.089 4.835-4.923 10.73-4.923 17.054 0 2.462 0.278 4.859 0.804 7.161l-0.041-0.215c2.167 7.98 7.364 14.482 14.249 18.323l0.151 0.077c5.161 3.018 11.363 4.8 17.981 4.8 0.007 0 0.013 0 0.020 0h-0.001c0.39 0.017 0.848 0.027 1.308 0.027 11.466 0 21.523-6.030 27.173-15.092l0.079-0.135 32-56 27.76-48.48 27.76 48.48 32 56c5.704 9.324 15.831 15.451 27.389 15.451 0.299 0 0.598-0.004 0.895-0.012l-0.044 0.001c0.003 0 0.006 0 0.009 0 6.568 0 12.72-1.783 17.997-4.891l-0.166 0.091c7.191-3.909 12.495-10.519 14.594-18.434l0.046-0.206c0.485-2.087 0.763-4.484 0.763-6.946 0-6.324-1.834-12.219-5-17.183l0.077 0.129-264-472-26.64-48h206.32c18.88 0 40.88-14.080 53.52-34.32 5.524-8.406 9.048-18.574 9.673-29.519l0.007-0.161zM960 336h-168l-178.72 302.24c-37.28-42.32-83.68-108.24-13.28-230.24 55.28-96 221.52-382.88 221.52-382.88 11.877-17.199 31.483-28.326 53.687-28.326 35.921 0 65.040 29.119 65.040 65.040 0 10.492-2.485 20.404-6.897 29.18l0.17-0.374-69.52 117.36h96c35.92 0 64 25.28 64 61.2 0.006 0.34 0.010 0.74 0.010 1.141 0 35.687-28.462 64.726-63.924 65.657l-0.086 0.002zM960 240h-152l28.8-48 69.76-117.040c2.846-4.774 4.529-10.527 4.529-16.674 0-12.123-6.545-22.717-16.294-28.442l-0.155-0.084c-4.718-2.816-10.406-4.48-16.482-4.48-0.027 0-0.054 0-0.082 0h0.004c-0.025 0-0.054 0-0.083 0-11.979 0-22.476 6.344-28.315 15.856l-0.082 0.144c-1.68 2.88-166.96 288-221.6 382.8-42.24 73.2-36.8 120-17.2 156.16l153.68-260.24 9.28-16h186.24c17.895-1.039 32.013-15.804 32.013-33.866 0-0.328-0.005-0.655-0.014-0.982l0.001 0.048c0-20.16-16-29.2-32-29.2z" />
<glyph unicode="&#xe902;" glyph-name="appstore" d="M366.592 554.496h-126.976c-20.48 0-20.48-20.48-20.48-20.48v-59.392s0-20.48 20.48-20.48h77.824zM315.392 308.736l-34.816 20.48c-6.144 4.096-12.288 0-12.288-6.144l-6.144-53.248c0-8.192 4.096-10.24 10.24-6.144l45.056 30.72c6.144 4.096 6.144 10.24-2.048 14.336zM509.952 613.888c4.096 6.144 2.048 14.336-4.096 18.432l-34.816 20.48c-6.144 4.096-14.336 2.048-18.432-4.096l-53.248-94.208-61.44-106.496-51.2-86.016c-4.096-6.144-2.048-14.336 4.096-18.432l34.816-20.48c6.144-4.096 14.336-2.048 18.432 4.096l69.632 120.832 45.056 77.824zM501.76 554.496l-49.152-96.256h147.456l-49.152 96.256zM700.416 448c-4.096 8.192-12.288 22.528-22.528 43.008 0 2.048-2.048 4.096-2.048 4.096 0 2.048-2.048 2.048-2.048 4.096 0 0-2.048 2.048-2.048 2.048 0 2.048-2.048 4.096-2.048 6.144v2.048c-2.048 2.048-2.048 4.096-4.096 6.144v2.048c-24.576 47.104-55.296 104.448-75.776 135.168-32.768 53.248-77.824 141.312-92.16 135.168-18.432-8.192 36.864-120.832 55.296-163.84s88.064-204.8 102.4-210.944 20.48-4.096 28.672 0c8.192 6.144 26.624 18.432 16.384 34.816zM741.376 364.032l-16.384 32.768c-4.096 8.192-12.288 10.24-20.48 6.144l-20.48-10.24c-6.144-4.096-10.24-12.288-4.096-18.432l20.48-32.768c4.096-6.144 14.336-8.192 20.48-4.096l14.336 8.192c8.192 2.048 10.24 10.24 6.144 18.432zM735.232 316.928c-6.144-6.144-18.432-16.384-2.048-36.864 14.336-20.48 49.152-22.528 53.248-36.864 0 0 12.288 108.544-51.2 73.728zM677.888 554.496h106.496c20.48 0 20.48-20.48 20.48-20.48v-59.392s0-20.48-20.48-20.48h-59.392zM512 939.52c-272.384 0-491.52-219.136-491.52-491.52s219.136-491.52 491.52-491.52 491.52 219.136 491.52 491.52-219.136 491.52-491.52 491.52zM512 58.88c-215.040 0-389.12 174.080-389.12 389.12s174.080 389.12 389.12 389.12 389.12-174.080 389.12-389.12-174.080-389.12-389.12-389.12z" />
<glyph unicode="&#xe903;" glyph-name="best-seller" d="M832 576c0 176.731-143.269 320-320 320s-320-143.269-320-320c0-176.731 143.269-320 320-320v0c176.647 0.208 319.792 143.353 320 319.98v0.020zM683.875 617.791l-70.459-68.708 16.663-96.999c0.196-1.086 0.308-2.337 0.308-3.613 0-11.777-9.547-21.325-21.325-21.325-3.636 0-7.060 0.91-10.056 2.515l0.114-0.056-87.122 45.792-87.125-45.792c-2.876-1.54-6.29-2.444-9.917-2.444-11.786 0-21.341 9.555-21.341 21.341 0 1.265 0.11 2.505 0.321 3.71l-0.019-0.128 16.667 96.999-70.459 68.708c-3.982 3.877-6.453 9.29-6.453 15.279 0 10.689 7.868 19.54 18.128 21.079l0.117 0.014 97.375 14.166 43.58 88.256c3.927 6.593 11.018 10.941 19.125 10.941s15.198-4.348 19.069-10.839l0.056-0.102 43.583-88.25 97.375-14.166c10.377-1.553 18.245-10.405 18.245-21.094 0-5.99-2.471-11.403-6.448-15.275l-0.005-0.005zM541.417 639.395l-29.417 59.563-29.417-59.563c-3.101-6.193-8.962-10.605-15.925-11.647l-0.117-0.014-65.707-9.563 47.542-46.374c3.991-3.884 6.467-9.308 6.467-15.31 0-1.261-0.109-2.497-0.319-3.698l0.018 0.128-11.25-65.437 58.786 30.895c2.874 1.549 6.289 2.459 9.917 2.459s7.043-0.91 10.030-2.515l-0.113 0.056 58.791-30.895-11.25 65.437c-0.191 1.073-0.3 2.309-0.3 3.57 0 6.002 2.476 11.426 6.462 15.306l0.005 0.005 47.542 46.374-65.707 9.563c-7.080 1.057-12.94 5.47-15.985 11.539l-0.056 0.123zM955.749 180.959l-143.614 191.734c-57.967-84.572-149.017-142.843-254.086-156.187l-1.796-0.186 155.627-207.774c3.933-5.209 10.113-8.54 17.072-8.54 10.471 0 19.18 7.544 20.989 17.493l0.020 0.13 27.708 157.27 157.292-27.733c1.116-0.207 2.401-0.326 3.713-0.326 11.782 0 21.333 9.551 21.333 21.333 0 4.82-1.598 9.266-4.294 12.838l0.039-0.054zM211.865 372.693l-143.614-191.734c-2.654-3.516-4.252-7.959-4.252-12.776 0-4.139 1.179-8.002 3.22-11.272l-0.052 0.090c3.763-6.144 10.44-10.182 18.059-10.182 1.349 0 2.669 0.127 3.948 0.369l-0.131-0.021 157.292 27.733 27.708-157.27c1.828-10.080 10.537-17.624 21.008-17.624 6.958 0 13.139 3.331 17.033 8.486l0.039 0.054 155.626 207.774c-106.866 13.53-197.916 71.802-255.082 155.138l-0.8 1.235z" />
<glyph unicode="&#xe904;" glyph-name="booking" d="M813.426 929h-602.85c-116.112 0-210.576-94.464-210.576-210.576 0-116.674 95.446-210.576 209.32-210.576h94.58v164.988c0 73.888 60.11 134 133.996 134h0.292c73.73-0.158 133.712-60.27 133.712-134v-164.988h241.526c116.112 0 210.574 94.464 210.574 210.576s-94.462 210.576-210.574 210.576zM873.014 747.788l-120-120c-11.714-11.716-30.71-11.718-42.426 0l-60 60c-11.716 11.716-11.716 30.71 0 42.426 11.714 11.716 30.71 11.716 42.426 0l38.788-38.786 98.788 98.786c11.714 11.716 30.71 11.716 42.426 0 11.714-11.716 11.714-30.712-0.002-42.426zM705.028 423.42l-193.126 20.074v229.344c0 40.808-33.034 73.912-73.842 74-40.93 0.088-74.158-33.068-74.158-74v-383.838h-0.672l-73.046 61c-30.81 25.728-76.786 20.904-101.586-10.658-23.782-30.268-19.19-73.958 10.364-98.62l148.266-123.722h436.672v217.112c0 45.404-33.818 83.696-78.872 89.308zM363.9-3c0-16.568 13.432-30 30-30h360c16.568 0 30 13.432 30 30v60h-420z" />
<glyph unicode="&#xe905;" glyph-name="briefcase" d="M977.454 401.454c-13.964 0-23.272-9.31-23.272-23.272v-302.546c0-13.964-9.31-23.272-23.272-23.272h-837.82c-13.964 0-23.272 9.31-23.272 23.272v302.546c0 13.964-9.31 23.272-23.272 23.272s-23.272-9.31-23.272-23.272v-302.546c0-39.564 30.254-69.818 69.818-69.818h837.818c39.564 0 69.818 30.254 69.818 69.818v302.546c0 13.964-9.31 23.272-23.274 23.272zM954.182 727.272h-884.364c-39.564 0-69.818-30.254-69.818-69.818v-148.946c0-32.58 23.272-60.508 53.528-67.49l365.382-81.454v-74.472c0-13.964 9.31-23.272 23.272-23.272h139.636c13.964 0 23.272 9.31 23.272 23.272v74.472l365.382 81.454c30.256 6.982 53.528 34.91 53.528 67.492v148.946c0 39.562-30.254 69.816-69.818 69.816zM558.546 308.364h-93.090v93.090h93.090v-93.090zM977.454 508.51c0-11.636-6.982-20.946-18.618-23.272l-353.746-79.128v18.618c0 13.964-9.31 23.272-23.272 23.272h-139.636c-13.964 0-23.272-9.31-23.272-23.272v-18.618l-353.746 79.126c-11.636 2.328-18.618 11.636-18.618 23.272v148.946c0 13.964 9.31 23.272 23.272 23.272h884.364c13.964 0 23.272-9.31 23.272-23.272v-148.944zM628.364 890.182h-232.728c-39.564 0-69.818-30.254-69.818-69.818v-23.272c0-13.964 9.31-23.272 23.272-23.272s23.272 9.31 23.272 23.272v23.272c0 13.964 9.31 23.272 23.272 23.272h232.728c13.964 0 23.272-9.31 23.272-23.272v-23.272c0-13.964 9.31-23.272 23.272-23.272 13.964 0 23.272 9.31 23.272 23.272v23.272c0.004 39.564-30.25 69.818-69.814 69.818z" />
<glyph unicode="&#xe906;" glyph-name="calendar" d="M891.482 899.765h-90.353v-90.353c0-18.071-15.059-30.118-30.118-30.118s-30.118 12.047-30.118 30.118v90.353h-481.882v-90.353c0-18.071-15.059-30.118-30.118-30.118s-30.118 12.047-30.118 30.118v90.353h-90.353c-45.176 0-78.306-39.153-78.306-90.353v-108.424h963.765v108.424c0 51.2-54.212 90.353-102.4 90.353zM30.118 637.741v-551.153c0-54.212 33.129-90.353 81.318-90.353h783.059c48.188 0 102.4 39.153 102.4 90.353v551.153zM298.165 131.765h-72.282c-12.047 0-24.094 9.035-24.094 24.094v75.294c0 12.047 9.035 24.094 24.094 24.094h75.294c12.047 0 24.094-9.035 24.094-24.094v-75.294c-3.012-15.059-12.047-24.094-27.106-24.094zM298.165 402.824h-72.282c-12.047 0-24.094 9.035-24.094 24.094v75.294c0 12.047 9.035 24.094 24.094 24.094h75.294c12.047 0 24.094-9.035 24.094-24.094v-75.294c-3.012-15.059-12.047-24.094-27.106-24.094zM539.106 131.765h-75.294c-12.047 0-24.094 9.035-24.094 24.094v75.294c0 12.047 9.035 24.094 24.094 24.094h75.294c12.047 0 24.094-9.035 24.094-24.094v-75.294c0-15.059-9.035-24.094-24.094-24.094zM539.106 402.824h-75.294c-12.047 0-24.094 9.035-24.094 24.094v75.294c0 12.047 9.035 24.094 24.094 24.094h75.294c12.047 0 24.094-9.035 24.094-24.094v-75.294c0-15.059-9.035-24.094-24.094-24.094zM780.047 131.765h-75.294c-12.047 0-24.094 9.035-24.094 24.094v75.294c0 12.047 9.035 24.094 24.094 24.094h75.294c12.047 0 24.094-9.035 24.094-24.094v-75.294c0-15.059-9.035-24.094-24.094-24.094zM780.047 402.824h-75.294c-12.047 0-24.094 9.035-24.094 24.094v75.294c0 12.047 9.035 24.094 24.094 24.094h75.294c12.047 0 24.094-9.035 24.094-24.094v-75.294c0-15.059-9.035-24.094-24.094-24.094z" />
<glyph unicode="&#xe907;" glyph-name="car" d="M975.225 511.63c-5.988 9.981-65.093 35.511-65.093 35.511 10.28 5.31 17.306 6.407 17.306 28.365 0 23.953-0.12 31.938-16.089 31.938h-54.174c-0.22 0.479-0.459 0.978-0.679 1.477-34.972 76.371-39.663 95.673-91.821 121.662-69.963 34.792-201.127 36.549-252.547 36.549s-182.583-1.757-252.487-36.549c-52.218-25.949-50.921-39.303-91.82-121.662 0-0.22-0.419-0.798-0.798-1.477h-54.234c-15.849 0-15.969-7.984-15.969-31.938 0-21.957 7.026-23.055 17.306-28.365 0 0-57.108-27.526-65.093-35.511s-15.969-63.875-15.969-159.688 7.984-191.626 7.984-191.626h23.833c0-27.945 4.112-31.938 16.089-31.938h159.687c11.977 0 15.969 3.992 15.969 31.938h511.002c0-27.945 3.992-31.938 15.969-31.938h163.68c7.984 0 11.977 5.988 11.977 31.938h23.953s7.984 97.809 7.984 191.626-9.981 149.708-15.969 159.688zM251.159 421.925c-36.353-3.974-72.894-6.014-109.465-6.108-40.76 0-42.158-2.615-45.032 22.835-1.081 11.649-0.739 23.386 1.018 34.952l1.258 6.088h5.988c23.953 0 46.449-1.018 88.926-13.534 21.605-6.483 41.925-16.653 60.062-30.061 8.703-6.308 10.699-12.296 10.699-12.296zM744.516 278.206l-8.823-22.077h-447.127s0.778 1.218-9.981 22.316c-7.984 15.61 1.996 25.59 17.785 31.259 30.58 11.018 119.946 42.238 215.759 42.238s186.955-26.907 216.577-42.238c10.979-5.669 24.612-9.661 15.809-31.618zM231.518 550.733c-6.447-0.371-12.909-0.419-19.362-0.14 5.21 9.262 8.104 19.582 13.194 30.361 15.969 33.934 34.233 72.339 66.75 88.527 46.988 23.394 144.378 33.934 220.030 33.934s173.042-10.46 220.030-33.934c32.516-16.188 50.701-54.613 66.75-88.527 5.13-10.879 7.984-21.278 13.334-30.6-3.992-0.22-8.583 0-19.542 0.379zM925.602 438.732c-4.272-24.911-0.279-22.915-43.036-22.915-36.571 0.094-73.111 2.134-109.466 6.108-5.689 1.018-7.306 10.619-2.755 14.172 18.047 13.558 38.395 23.742 60.063 30.061 42.477 12.516 66.39 14.192 90.004 13.354 1.587-0.060 3.094-0.707 4.234-1.81 1.138-1.106 1.828-2.595 1.934-4.178 1.13-11.619 0.8-23.334-0.978-34.872z" />
<glyph unicode="&#xe908;" glyph-name="car-11" d="M852 532h-52.232l-73.288 107.054c-43.274 63.21-114.842 100.946-191.442 100.946h-154.308c-76.602 0-148.17-37.736-191.442-100.946l-75.29-109.98c-67.486-22.286-113.998-86.068-113.998-157.65v-51.424c0-33.084 26.916-60 60-60h40.522c-0.052-1.33-0.102-2.658-0.102-4 0-55.14 44.86-100 100-100s100 44.86 100 100c0 1.342-0.048 2.67-0.102 4h123.39c11.046 0 20 8.956 20 20s-8.954 20-20 20h-133.516c-16.306 33.136-50.414 56-89.772 56s-73.466-22.864-89.772-56h-50.648c-11.028 0-20 8.972-20 20v51.424c0 56.232 37.812 106.122 91.95 121.32 4.518 1.27 8.448 4.086 11.098 7.958l79.246 115.756c35.81 52.312 95.040 83.542 158.434 83.542h154.308c63.394 0 122.624-31.23 158.436-83.542l79.244-115.754c3.728-5.448 9.904-8.704 16.504-8.704h62.78c72.786 0 132-59.214 132-132v-60h-67.226c-16.308 33.136-50.414 56-89.774 56s-73.466-22.864-89.774-56h-133.518c-11.044 0-20-8.956-20-20s8.956-20 20-20h123.392c-0.052-1.33-0.102-2.658-0.102-4 0-55.14 44.86-100 100-100s100 44.86 100 100c0 1.342-0.048 2.67-0.102 4h77.104c11.044 0 20 8.956 20 20v80c0 94.842-77.158 172-172 172zM200.42 316c33.084 0 60-26.916 60-60s-26.916-60-60-60-60 26.916-60 60 26.918 60 60 60zM827 196c-33.084 0-60 26.916-60 60s26.916 60 60 60 60-26.916 60-60-26.916-60-60-60zM200.42 236c5.26 0 10.42 2.14 14.14 5.862 3.72 3.718 5.86 8.878 5.86 14.138s-2.14 10.42-5.86 14.14-8.88 5.86-14.14 5.86-10.42-2.138-14.14-5.86c-3.72-3.72-5.86-8.88-5.86-14.14s2.14-10.42 5.86-14.138c3.72-3.722 8.88-5.862 14.14-5.862zM827 276c-5.26 0-10.42-2.138-14.14-5.86-3.72-3.72-5.86-8.88-5.86-14.14s2.138-10.42 5.86-14.138c3.72-3.72 8.88-5.862 14.14-5.862s10.42 2.14 14.138 5.862c3.72 3.718 5.862 8.878 5.862 14.138s-2.14 10.42-5.862 14.14c-3.718 3.722-8.878 5.86-14.138 5.86zM481 492l211.272-0.002c7.42 0 14.23 4.108 17.692 10.672 3.46 6.562 3.004 14.504-1.188 20.626l-48.308 70.566c-28.354 41.414-75.244 66.138-125.43 66.138h-54.038c-11.046 0-20-8.954-20-20v-128c0-11.046 8.954-20 20-20zM501 620h34.038c36.98 0 71.532-18.218 92.422-48.732l26.882-39.27-153.342 0.002zM380.728 660c-50.186 0-97.078-24.724-125.43-66.138l-48.306-70.562c-4.192-6.122-4.65-14.064-1.188-20.626 3.46-6.564 10.272-10.672 17.692-10.672h177.504c11.046 0 20 8.954 20 20v128c0 11.046-8.954 20-20 20h-20.272zM381 532h-119.576l26.88 39.264c20.894 30.518 55.444 48.736 92.424 48.736h0.272zM524.666 431.5c0 11.044-8.954 20-20 20h-23.666c-11.046 0-20-8.956-20-20s8.954-20 20-20h23.666c11.046 0 20 8.956 20 20zM513.72 300c-5.28 0-10.42-2.138-14.16-5.86-3.72-3.72-5.84-8.88-5.84-14.14s2.12-10.42 5.84-14.138c3.74-3.72 8.9-5.862 14.16-5.862 5.24 0 10.4 2.14 14.14 5.862 3.72 3.718 5.84 8.878 5.84 14.138s-2.12 10.42-5.84 14.14c-3.74 3.722-8.88 5.86-14.14 5.86z" />
<glyph unicode="&#xe909;" glyph-name="cart" d="M775.577 198.643c-65.766 0.063-119.132-53.2-119.197-118.966s53.2-119.132 118.966-119.197c65.766-0.063 119.132 53.2 119.197 118.966 0 0.038 0 0.076 0 0.114-0.063 65.697-53.271 118.954-118.966 119.082zM986.785 768.865c-2.848 0.552-5.744 0.832-8.646 0.837h-725.048l-11.483 76.823c-7.155 51.020-50.795 88.979-102.315 88.995h-93.359c-25.368 0-45.933-20.564-45.933-45.933s20.564-45.933 45.933-45.933h93.474c5.84 0.043 10.783-4.306 11.483-10.106l70.736-484.82c9.698-61.606 62.689-107.054 125.053-107.254h477.816c60.042-0.078 111.84 42.12 123.904 100.938l74.755 372.63c4.82 24.906-11.463 49.003-36.369 53.823zM483.858 84.661c-2.797 63.837-55.481 114.090-119.381 113.868v0c-65.712-2.655-116.83-58.080-114.175-123.792 2.548-63.052 53.839-113.168 116.931-114.256h2.871c65.703 2.88 116.631 58.477 113.753 124.18z" />
<glyph unicode="&#xe90a;" glyph-name="check-mark" d="M327.68 601.6l-71.68-71.68 256-256 512 512-71.68 71.68-440.32-440.32zM460.8 89.6c-199.68 0-358.4 158.72-358.4 358.4s158.72 358.4 358.4 358.4c61.44 0 122.88-15.36 179.2-46.080l51.2 87.040c-71.68 40.96-148.48 61.44-230.4 61.44-256 0-460.8-204.8-460.8-460.8s204.8-460.8 460.8-460.8 460.8 204.8 460.8 460.8h-102.4c0-199.68-158.72-358.4-358.4-358.4z" />
<glyph unicode="&#xe90b;" glyph-name="clock" d="M874.040 810.040c-96.706 96.702-225.28 149.96-362.040 149.96s-265.336-53.258-362.040-149.96c-96.702-96.704-149.96-225.28-149.96-362.040s53.258-265.336 149.96-362.040c96.704-96.702 225.28-149.96 362.040-149.96s265.334 53.258 362.040 149.96c96.702 96.704 149.96 225.28 149.96 362.040s-53.258 265.336-149.96 362.040zM852.826 107.174c-91.038-91.038-212.078-141.174-340.826-141.174s-249.788 50.136-340.826 141.174-141.174 212.078-141.174 340.826 50.136 249.788 141.174 340.826 212.078 141.174 340.826 141.174 249.788-50.136 340.826-141.174 141.174-212.078 141.174-340.826-50.136-249.788-141.174-340.826zM672.236 68.678c-46.164-19.526-94.956-30.262-145.236-32.048v52.578c0 8.284-6.716 15-15 15s-15-6.716-15-15v-52.572c-102.206 3.68-195.022 44.79-265.138 110.014l37.040 37.040c5.858 5.858 5.858 15.356 0 21.214s-15.356 5.858-21.214 0l-37.040-37.040c-65.224 70.114-106.332 162.93-110.012 265.136h52.574c8.284 0 15 6.716 15 15s-6.716 15-15 15h-52.58c3.604 99.86 43.072 193.572 109.85 265.308l37.21-37.21c2.928-2.93 6.768-4.394 10.606-4.394s7.678 1.464 10.606 4.392c5.858 5.858 5.858 15.356 0 21.214l-37.198 37.198c16.518 15.34 34.388 29.472 53.57 42.152 6.91 4.568 8.808 13.874 4.24 20.786-4.57 6.91-13.874 8.81-20.784 4.24-124.23-82.128-198.396-219.956-198.396-368.686 0-117.974 45.942-228.886 129.362-312.306s194.332-129.362 312.306-129.362c59.618 0 117.46 11.68 171.92 34.714 7.63 3.228 11.2 12.028 7.972 19.658-3.228 7.632-12.030 11.202-19.658 7.974zM824.306 760.306c-83.42 83.42-194.332 129.36-312.306 129.36-65.91 0-129.32-14.172-188.47-42.12-7.49-3.54-10.694-12.48-7.154-19.97 3.538-7.492 12.48-10.692 19.97-7.154 50.61 23.914 104.59 36.97 160.654 38.948v-52.578c0-8.284 6.716-15 15-15s15 6.716 15 15v52.572c102.206-3.68 195.022-44.79 265.138-110.014l-37.040-37.040c-5.858-5.858-5.858-15.356 0-21.214 2.928-2.928 6.768-4.392 10.606-4.392s7.678 1.464 10.606 4.394l37.040 37.040c65.226-70.116 106.334-162.932 110.014-265.138h-52.574c-8.284 0-15-6.716-15-15s6.716-15 15-15h52.582c-2.432-66.814-21.042-132.172-54.238-189.898-15.638-27.196-34.376-52.468-55.668-75.356l-37.156 37.158c-5.858 5.858-15.356 5.858-21.214 0s-5.858-15.356 0-21.214l37.148-37.148c-20.46-19.034-42.818-36.052-66.792-50.62-7.080-4.302-9.332-13.528-5.030-20.608 2.824-4.646 7.766-7.214 12.834-7.212 2.654 0 5.34 0.704 7.774 2.182 63.686 38.698 116.978 93.286 154.11 157.862 38.288 66.586 58.526 142.61 58.526 219.854 0 117.974-45.94 228.886-129.36 312.306zM683.11 646.11l-151.722-151.722c-5.874 2.816-12.45 4.398-19.388 4.398s-13.514-1.58-19.39-4.398l-82.112 82.11c-5.858 5.858-15.356 5.858-21.212 0-5.858-5.858-5.858-15.356 0-21.212l82.112-82.11c-2.818-5.876-4.398-12.45-4.398-19.39 0-24.814 20.186-45 45-45s45 20.188 45 45c0 6.938-1.58 13.514-4.398 19.39l151.722 151.722c5.858 5.858 5.858 15.356 0 21.214-5.858 5.856-15.356 5.856-21.214-0.002zM512 438.786c-8.272 0-15 6.73-15 15s6.728 15 15 15 15-6.73 15-15c0-8.272-6.728-15-15-15zM565 275c8.284 0 15 6.716 15 15s-6.716 15-15 15h-106c-8.284 0-15-6.716-15-15s6.716-15 15-15z" />
<glyph unicode="&#xe90c;" glyph-name="clock-1" d="M874.040 810.038c-96.704 96.704-225.28 149.962-362.040 149.962s-265.336-53.258-362.040-149.962c-96.704-96.704-149.96-225.278-149.96-362.038s53.256-265.336 149.96-362.038c96.704-96.702 225.28-149.962 362.040-149.962s265.336 53.258 362.040 149.962c96.704 96.704 149.96 225.278 149.96 362.038s-53.256 265.336-149.96 362.038zM512 36.496c-226.906 0-411.504 184.6-411.504 411.504 0 0.372 0.012 0.74 0.014 1.108 0 0.094-0.014 0.184-0.014 0.278 0 0.158 0.020 0.31 0.024 0.466 0.998 224.186 182.172 406.58 405.888 409.58 0.468 0.022 0.932 0.070 1.406 0.070 0.284 0 0.56-0.034 0.842-0.042 1.116 0.008 2.228 0.042 3.346 0.042 226.906 0 411.504-184.6 411.504-411.504s-184.6-411.502-411.506-411.502zM824.574 423.28c-16.732 0-30.296 13.564-30.296 30.296s13.564 30.296 30.296 30.296h36.518c-17.152 168.152-153.524 301.546-322.984 314.070v-31.79c0-16.732-13.564-30.296-30.296-30.296s-30.296 13.564-30.296 30.296v31.066c-166.952-16.36-299.938-150.204-314.984-317.532h32.704c16.732 0 30.296-13.564 30.296-30.296s-13.564-30.296-30.296-30.296h-32.952c13.93-170.022 149.582-306.090 319.42-320.684v38.406c0 16.732 13.564 30.296 30.296 30.296s30.296-13.564 30.296-30.296v-38.406c171.228 14.714 307.706 152.902 319.734 324.87h-37.456zM634.64 527.796l-101.216-101.218c-5.682-5.682-13.386-8.874-21.422-8.874-8.034 0-15.742 3.192-21.422 8.874l-176.186 176.186c-11.832 11.83-11.832 31.012 0 42.844 11.83 11.832 31.012 11.832 42.844 0l154.766-154.764 79.796 79.796c11.83 11.832 31.012 11.832 42.844 0 11.828-11.83 11.828-31.014-0.004-42.844z" />
<glyph unicode="&#xe90d;" glyph-name="costumer" d="M518.284 810.142l32.244-84.928c0.97-2.554 3.226-4.192 5.954-4.326l90.734-4.422c2.842-0.138 5.182-1.928 6.062-4.634 0.878-2.706 0.038-5.53-2.18-7.312l-70.806-56.91c-2.128-1.71-2.99-4.364-2.274-6.998l23.832-87.66c0.746-2.746-0.232-5.524-2.534-7.196s-5.246-1.744-7.628-0.186l-76.006 49.754c-2.284 1.496-5.074 1.496-7.358 0l-76.004-49.754c-2.38-1.558-5.326-1.486-7.626 0.186-2.302 1.672-3.28 4.452-2.534 7.196l23.832 87.66c0.716 2.634-0.146 5.288-2.274 6.998l-70.806 56.91c-2.218 1.782-3.060 4.606-2.18 7.312 0.878 2.706 3.22 4.494 6.062 4.634l90.734 4.422c2.728 0.132 4.984 1.772 5.952 4.326l32.244 84.928c1.010 2.66 3.434 4.332 6.28 4.332s5.27-1.672 6.28-4.332zM342.556 836.86l56.752-51.102c6.558-5.902 16.66-5.37 22.562 1.188s5.37 16.66-1.188 22.562l-56.752 51.102c-6.558 5.902-16.66 5.37-22.562-1.188s-5.372-16.66 1.188-22.562zM660.076 860.61l-57.084-51.4c-6.558-5.902-7.090-16.004-1.188-22.562s16.004-7.090 22.562-1.188l57.084 51.4c6.558 5.902 7.090 16.004 1.188 22.562-5.904 6.558-16.004 7.090-22.562 1.188zM528.004 873.908c0-8.836-7.164-16-16-16s-16 7.164-16 16v58.718c0 8.836 7.164 16 16 16s16-7.164 16-16zM512.004 494.232c61.998 0 112.258-50.26 112.258-112.256 0-61.998-50.26-112.258-112.258-112.258s-112.256 50.26-112.256 112.258 50.258 112.256 112.256 112.256zM732.748 51.584c-11.92 111.384-106.198 198.134-220.744 198.134-114.548 0-208.826-86.75-220.746-198.136v-44.876c0-32.68 26.654-59.334 59.334-59.334h322.822c32.68 0 59.334 26.654 59.334 59.334zM847.5 412.712c46.382 0 83.982-37.602 83.982-83.982 0-46.382-37.6-83.982-83.982-83.982s-83.982 37.6-83.982 83.982c-0.002 46.38 37.598 83.982 83.982 83.982zM176.508 412.712c46.382 0 83.982-37.602 83.982-83.982 0-46.382-37.6-83.982-83.982-83.982s-83.982 37.6-83.982 83.982c0 46.38 37.6 83.982 83.982 83.982zM176.506 222.314c48.944 0 92.942-21.168 123.342-54.848-21.454-32.484-35.68-70.286-40.264-111.258h-205.508c-12.454 0-23.17 5.414-30.56 15.438s-9.392 21.862-5.708 33.76c20.97 67.718 84.092 116.908 158.698 116.908zM847.498 222.314c74.61 0 137.73-49.19 158.698-116.908 3.684-11.898 1.682-23.734-5.708-33.76s-18.104-15.438-30.56-15.438h-205.508c-4.584 40.972-18.812 78.772-40.264 111.258 30.402 33.68 74.4 54.848 123.342 54.848zM163.898 810.142l32.244-84.928c0.97-2.554 3.226-4.192 5.954-4.326l90.734-4.422c2.842-0.138 5.182-1.928 6.062-4.634 0.878-2.706 0.038-5.53-2.18-7.312l-70.806-56.91c-2.128-1.71-2.99-4.364-2.274-6.998l23.832-87.66c0.746-2.746-0.232-5.524-2.534-7.196s-5.246-1.744-7.628-0.186l-76.006 49.754c-2.284 1.496-5.074 1.496-7.358 0l-76.004-49.754c-2.38-1.558-5.326-1.486-7.626 0.186-2.302 1.672-3.28 4.452-2.534 7.196l23.832 87.66c0.716 2.634-0.146 5.288-2.274 6.998l-70.806 56.912c-2.218 1.782-3.060 4.606-2.18 7.312 0.878 2.706 3.22 4.494 6.062 4.634l90.734 4.422c2.728 0.132 4.984 1.772 5.952 4.326l32.246 84.926c1.010 2.66 3.434 4.332 6.28 4.332s5.268-1.672 6.278-4.332zM871.61 810.142l32.244-84.928c0.97-2.554 3.226-4.192 5.954-4.326l90.734-4.422c2.842-0.138 5.182-1.928 6.062-4.634 0.878-2.706 0.038-5.53-2.18-7.312l-70.806-56.91c-2.128-1.71-2.99-4.364-2.274-6.998l23.832-87.66c0.746-2.746-0.232-5.524-2.532-7.196-2.302-1.672-5.246-1.744-7.628-0.186l-76.006 49.754c-2.284 1.496-5.074 1.496-7.358 0l-76.004-49.754c-2.38-1.558-5.326-1.486-7.628 0.186s-3.28 4.452-2.534 7.196l23.832 87.66c0.716 2.634-0.146 5.288-2.274 6.998l-70.806 56.91c-2.218 1.782-3.060 4.606-2.18 7.312 0.878 2.706 3.22 4.494 6.062 4.634l90.734 4.422c2.728 0.132 4.984 1.772 5.952 4.326l32.244 84.928c1.010 2.66 3.434 4.332 6.28 4.332s5.27-1.672 6.28-4.332z" />
<glyph unicode="&#xe90e;" glyph-name="delivery-man" d="M966.924-26.090l-81.118 296.78c-1.824 6.674-5.898 12.514-11.534 16.528-128.582 91.57-86.432 61.554-196.354 139.83 41.724 42.876 65.776 100.84 65.776 161.516 0 120.96 0.804 127.58-2.742 149.648-1.31 126.624-97.28 221.788-224.288 221.788h-9.328c-127.006 0-222.976-95.164-224.286-221.79-3.546-22.068-2.742-28.682-2.742-149.648 0-60.672 24.052-118.636 65.778-161.516-139.104-99.056-57.824-41.174-196.356-139.83-5.636-4.014-9.712-9.854-11.536-16.528l-81.118-296.78c-5.214-19.078 9.172-37.908 28.938-37.908h395.988v317.034l30 19.71 30-19.71v-317.034h395.988c19.776 0 34.146 18.846 28.934 37.91zM492.41 862.796h39.182c16.568 0 30-13.432 30-30s-13.432-30-30-30h-39.182c-16.568 0-30 13.432-30 30s13.432 30 30 30zM482.004 324.826l-65.99-43.358-88.026 59.032 67.404 48c27.552-16.070 57.312-25.684 86.612-29.456v-34.218zM512.002 417.12c-95.29 0-171.694 77.334-171.694 171.442-0.002 21.484-0.026 39.264-0.046 54.152l16.128-23.546c5.592-8.166 14.852-13.046 24.75-13.046h261.722c9.896 0 19.156 4.88 24.75 13.046l16.128 23.546c-0.020-14.886-0.044-32.668-0.044-54.152 0-93.266-75.556-171.442-171.694-171.442zM542 324.826v34.22c30.86 3.968 60.384 14.156 86.61 29.456l67.404-48-88.026-59.032-65.988 43.356zM766.856 63.814h-105.196c-16.568 0-30 13.432-30 30s13.432 30 30 30h105.196c16.568 0 30-13.432 30-30s-13.432-30-30-30z" />
<glyph unicode="&#xe90f;" glyph-name="double-right-arrow" d="M998.802 508.796l-425.948 425.95c-33.595 33.595-88.081 33.595-121.676 0s-33.595-88.081 0-121.676l365.071-365.069-365.071-365.067c-33.595-33.595-33.595-88.081 0-121.676s88.081-33.595 121.676 0l425.948 425.948c33.595 33.511 33.595 87.996 0 121.591zM486.648 534.589l-338.167 356.414c-33.98 35.769-89.018 35.769-122.998 0s-33.98-93.793 0-129.605l276.69-291.611-276.69-291.611c-33.98-35.77-33.98-93.835 0-129.605s89.018-35.77 122.998 0l338.167 356.414c33.98 35.769 33.98 93.793 0 129.605z" />
<glyph unicode="&#xe910;" glyph-name="down" d="M512 277.333c-0.073 0-0.16-0.001-0.247-0.001-11.721 0-22.338 4.726-30.049 12.377l-255.997 255.997c-7.753 7.753-12.548 18.463-12.548 30.293 0 23.661 19.181 42.841 42.841 42.841 11.83 0 22.541-4.795 30.293-12.548v0l225.707-226.133 225.707 225.707c7.412 6.377 17.129 10.259 27.753 10.259 23.564 0 42.667-19.103 42.667-42.667 0-10.624-3.883-20.341-10.307-27.809l0.047 0.056-256-256c-7.667-7.606-18.211-12.323-29.857-12.373h-0.010z" />
<glyph unicode="&#xe911;" glyph-name="down-arrow" d="M512 256c-8.184 0-16.376 3.128-22.624 9.376l-320 320c-12.504 12.504-12.504 32.752 0 45.248s32.752 12.504 45.248 0l297.376-297.376 297.376 297.376c12.504 12.504 32.752 12.504 45.248 0s12.504-32.752 0-45.248l-320-320c-6.248-6.248-14.44-9.376-22.624-9.376z" />
<glyph unicode="&#xe912;" glyph-name="driver" d="M937.928-46.556l-29.963 181.473c-5.916 35.831-23.902 69.097-50.647 93.668-13.82 12.704-34.747-8.814-20.296-22.090 21.834-20.060 36.517-47.215 41.347-76.465l15.542-94.128c-11.924 22.042-21.914 44.811-33.353 67.117-12.484 24.722-35.881 48.467-64.193 65.149-13.748 8.1-48.335 25.76-72.557 14.93-10.864-4.86-16.138-16.606-18.7-27.586-39.709 27.724-84.989 46.549-132.478 55.277l113.668 68.091 79.855-33.923c16.998-7.216 29.969 19.862 11.73 27.614l-83.549 35.493-35.823 49.587c48.431 22.602 80.275 72.023 80.275 126.24v263.931l20.838 46.927c20.108 45.285-5.018 99.966-52.525 113.894l-155.573 45.623c-26.054 7.642-53.603 7.642-79.611 0.012l-70.253-20.366c-18.028-5.226-10.494-34.287 8.352-28.811l70.297 20.376c20.534 6.024 42.235 6.024 62.773 0l155.573-45.625c30.521-8.948 46.413-43.955 33.547-72.931l-18.172-40.923h-404.673l-18.172 40.923c-6.27 14.122-6.14 30.257 0.354 44.277 6.448 13.914 18.544 24.36 33.195 28.653 18.012 5.284 10.398 34.295-8.442 28.789-22.95-6.728-41.891-23.070-51.973-44.833-10.13-21.866-10.33-47.037-0.55-69.061l20.838-46.927v-263.931c0-54.215 31.843-103.636 80.275-126.24l-36.087-49.953-115.48-49.059c-51.755-21.986-88.124-68.235-97.286-123.718l-29.919-181.211c-1.794-9.518 5.682-17.094 14.772-17.708 5.534 0 10.734 3.202 13.288 8.076l35.321 67.849c9.274-14.494 24.196-24.824 41.421-27.246-3.046-9.226-5.706-18.598-7.954-28.11-4.254-17.99 24.488-26.82 29.195-6.902 7.852 33.215 21.1 64.615 39.397 93.462 8.604 0.482 17.38 2.694 26.070 7.274 26.982 14.222 39.195 43.123 42.413 69.009 54.263 43.217 122.076 66.955 191.665 66.955 69.185 0 137.876-24.012 191.955-67.191 3.262-25.828 15.482-54.595 42.381-68.773 8.604-4.534 17.286-6.74 25.808-7.252 18.202-28.693 31.581-60.413 39.399-93.484 4.398-18.61 33.667-12.012 29.195 6.902-2.246 9.498-4.898 18.858-7.94 28.074 16.296 2.222 32.127 12.092 40.913 26.108l36.187-66.887c7.75-14.336 31.109-7.254 28.33 9.58zM563.524 240.305c-10.050 24.396-20.098 48.789-30.147 73.185 32.865 5.226 65.243 21.372 96.242 32.925l33.537-46.425zM708.786 736.002v-29.351h-394.177v29.351zM706.988 676.651c-6.702-27.406-31.335-47.791-60.617-47.791h-269.347c-29.281 0-53.915 20.386-60.617 47.791zM314.608 483.89v139.4c16.456-15.16 38.375-24.432 62.415-24.432h269.347c24.040 0 45.959 9.272 62.415 24.432v-139.4c0-45.433-28.463-86.564-70.831-102.354l-7.696-2.868-118.56-36.245-118.59 36.255-7.668 2.858c-42.367 15.79-70.833 56.921-70.833 102.354zM393.773 346.413c30.999-11.554 63.375-27.698 96.244-32.923-10.050-24.396-20.098-48.789-30.147-73.185l-99.632 59.685zM225.046 231.023l112.3 47.709 113.418-67.943c-47.401-8.712-92.6-27.482-132.258-55.123-2.576 10.934-7.85 22.594-18.662 27.432-24.228 10.832-58.813-6.83-72.557-14.93-28.222-16.63-51.555-40.279-64.069-64.917-0.012-0.024-0.028-0.044-0.040-0.068l-32.195-61.847 14.644 88.694c7.48 45.291 37.169 83.047 79.419 100.992zM198.971 14.095c-20.434 0-34.837 22.744-25.806 41.217l7.936 16.232c9.704-7.948 23.216-17.27 38.613-23.036-6.476-11.092-12.296-22.504-17.436-34.205-1.098-0.13-2.2-0.208-3.308-0.208zM263.631 76.942c-24.096-12.7-54.299 9.62-68.285 21.998 25.248 38.507 76.955 61.461 91.314 57.121 1.994-2.968 4.958-13.278 4.12-27.51-0.006-0.070-0.008-0.14-0.014-0.21-0.18-2.946-0.512-6.046-1.062-9.296-1.966-11.628-7.968-32.559-26.074-42.103zM484.879 215.279l-1.48 3.384 28.298 68.695 28.517-69.225-1.048-2.904c-9.114 0.746-18.276 1.14-27.468 1.14-8.976-0.002-17.92-0.38-26.82-1.090zM733.947 119.045c-3.226 19.070 0.626 33.419 3.042 37.015 14.354 4.352 66.095-18.632 91.334-57.147-13.93-12.396-44.053-34.755-68.303-21.97-18.104 9.542-24.106 30.473-26.074 42.101zM848.395 27.286c-5.85-8.88-16.658-14.318-27.306-12.934-5.122 11.654-10.918 23.022-17.364 34.071 15.486 5.76 29.077 15.134 38.829 23.12 3.436-6.47 7.742-13.842 9.73-20.994 2.112-7.366 0.324-17.156-3.89-23.264zM491.015 149.466c-3.2 2.846-7.452 4.188-11.718 3.692-109.724-12.87-201.042-89.706-232.64-195.757-5.29-17.758 22.942-28.058 28.749-8.566 26.548 89.096 100.37 155.067 190.639 171.979v-134.648c0-10.036-1.076-20.084-3.202-29.865-3.984-18.344 25.152-25.544 29.315-6.368 2.578 11.87 3.884 24.060 3.884 36.231v152.093c0.002 4.284-1.828 8.362-5.028 11.208zM544.096 153.158c-4.266 0.498-8.52-0.846-11.718-3.692s-5.030-6.924-5.030-11.208v-152.093c0-12.172 1.306-24.364 3.884-36.231 3.984-18.34 33.479-12.812 29.315 6.368-2.126 9.782-3.202 19.83-3.202 29.865v134.648c90.27-16.912 164.091-82.883 190.639-171.979 5.446-18.286 34.305-10.084 28.749 8.566-31.593 106.048-122.912 182.887-232.638 195.757zM511.697 415.564c24.338 0 47.159 10.246 64.261 28.849 12.706 13.816-8.81 34.755-22.086 20.3-11.354-12.35-26.332-19.15-42.175-19.15s-30.821 6.8-42.175 19.15c-12.7 13.82-35.369-5.854-22.086-20.3 17.102-18.604 39.923-28.849 64.261-28.849z" />
<glyph unicode="&#xe913;" glyph-name="driver-1" d="M335.048 119.87l-83.246 133.774-75.308-21.026c-72.946-20.49-123.796-87.75-123.796-163.38v-111.78c0-11.8 9.654-21.456 21.456-21.456h336.632l16.198 147.504c-33.812-9.364-71.842 3.962-91.936 36.364zM847.504 232.726l-75.2 21.026-83.246-133.988c-20.51-32.932-59.894-45.696-92.042-36.152l16.198-147.612h336.63c11.8 0 21.456 9.654 21.456 21.456v111.78c0.002 75.63-50.846 142.892-123.796 163.49zM595.906 130.546c18.838-12.904 44.642-7.48 56.676 11.908l64.834 104.39-88.054 54.452-117.246-113.306h-0.17l-10.874-7.43 10.836 7.426-117.232 113.312-88.078-54.452 64.854-104.39c12.034-19.388 37.818-24.81 56.656-11.908l11.076 7.592 33.284-33.284-16.842-153.19h112.746l-16.842 153.082 33.356 33.356zM251.91 773.824c11.694 12.336 28.322 19.846 46.45 19.846h427.064c18.128 0 34.756-7.508 46.558-19.952 0.356 1.204 15.612 24.68 5.256 53.636-15.628 43.984-50.53 37.544-239.654 127.336-16.198 7.080-34.756 7.080-50.956 0-192.030-91.128-224.172-83.636-239.76-127.228-10.572-29.564 4.664-52.328 5.042-53.638zM725.424 750.758h-427.064c-9.868 0-18.452-6.65-20.812-16.306-6.574-26.462-7.296-44.298-7.296-67.692 0-15.020 5.96-29.628 19.17-40.734 5.064-175.002 62.794-230.012 141-296.438 16.994-14.526 38.668-22.522 61.032-22.522h41.408c22.366 0 44.042 7.998 61.012 22.508 76.406 65.114 135.102 117.93 140.77 296.532 11.638 9.882 19.204 24.57 19.204 41.406 0 18.88 0 36.582-7.618 67.048-2.352 9.548-10.936 16.198-20.806 16.198zM566.022 362.212c-9.23-7.892-21.006-12.236-33.158-12.236h-41.408c-12.152 0-23.928 4.342-33.204 12.278-61.546 52.234-117.702 94.204-125.442 251.084h1.806l50.312-48.81c21.884-21.24 50.742-32.934 81.316-32.934h91.72c30.466 0 59.322 11.694 81.206 32.826l50.526 48.918h1.52c-7.808-150.152-57.196-193.218-125.194-251.126z" />
<glyph unicode="&#xe914;" glyph-name="electric-car" d="M968.016 532.48l-60.032 48.032c-0.24 0.192-0.48 0.432-0.72 0.624l55.888 11.184c7.472 1.488 12.848 8.048 12.848 15.68v48c0 8.832-7.168 16-16 16h-80c-8.832 0-16-7.168-16-16v-28.032c-0.368 0.496-0.736 0.992-1.104 1.488-1.008 2.784-2.8 5.056-5.072 6.864-9.008 12.752-16.72 25.52-21.744 36.56l-27.040 59.472c-17.232 37.936-63.376 67.648-105.040 67.648h-384c-41.664 0-87.808-29.712-105.040-67.648l-27.024-59.456c-5.024-11.040-12.736-23.824-21.744-36.576-2.272-1.808-4.048-4.080-5.072-6.864-0.368-0.496-0.72-0.976-1.104-1.488v28.032c0 8.832-7.168 16-16 16h-80.016c-8.832 0-16-7.168-16-16v-48c0-7.632 5.376-14.192 12.864-15.68l55.888-11.184c-0.24-0.192-0.48-0.432-0.72-0.624l-60.048-48.032c-31.392-25.12-55.984-76.288-55.984-116.48v-272c0-26.464 21.536-48 48-48h128c26.464 0 48 21.536 48 48v32h576v-32c0-26.464 21.536-48 48-48h128c26.464 0 48 21.536 48 48v272c0 40.192-24.592 91.36-55.984 116.48zM822.624 208l-36.688 36.688c-15.568 15.568-43.92 27.312-65.936 27.312h-424c-22.016 0-50.368-11.744-65.936-27.312l-36.688-36.688h-113.376c-26.464 0-48 21.536-48 48v80h16v-16c0-35.296 28.704-64 64-64h48c8.832 0 16 7.168 16 16s-7.168 16-16 16h-48c-17.648 0-32 14.352-32 32v16h32c13.28 0 33.92-8.544 43.312-17.936 3.12-3.12 7.216-4.688 11.312-4.688s8.192 1.568 11.312 4.688c6.256 6.256 6.256 16.368 0 22.624-15.568 15.568-43.904 27.312-65.936 27.312h-80v48c0 5.648 0.896 11.744 2.16 17.968 10.24-10.688 25.136-17.968 45.84-17.968h128c4.24 0 8.304 1.68 11.312 4.688l20.688 20.688 20.688-20.688c2.992-3.008 7.072-4.688 11.312-4.688h185.376l43.312-43.312c3.12-3.12 7.216-4.688 11.312-4.688s8.192 1.568 11.312 4.688l43.312 43.312h185.376c4.24 0 8.32 1.68 11.312 4.688l20.688 20.688 20.688-20.688c2.992-3.008 7.072-4.688 11.312-4.688h128c20.704 0 35.6 7.28 45.84 17.968 1.264-6.224 2.16-12.32 2.16-17.968v-48h-80c-22.016 0-50.368-11.744-65.936-27.312-6.256-6.256-6.256-16.368 0-22.624 3.12-3.12 7.216-4.688 11.312-4.688s8.192 1.568 11.312 4.688c9.392 9.392 30.032 17.936 43.312 17.936h32v-16c0-17.648-14.352-32-32-32h-48c-8.832 0-16-7.168-16-16s7.168-16 16-16h48c35.296 0 64 28.704 64 64v16h16v-80c0-26.464-21.536-48-48-48zM777.376 208h-538.752l14.064 14.064c9.392 9.392 30.032 17.936 43.312 17.936h424c13.28 0 33.92-8.544 43.312-17.936zM184.96 608h654.080c15.504-20.496 33.216-39.888 48.944-52.48l19.248-15.392-113.168-45.264c-0.016 0-0.016-0.016-0.032-0.016-1.936-0.784-3.76-1.952-5.328-3.52l-43.328-43.328h-185.376c-4.24 0-8.32-1.68-11.312-4.688l-36.688-36.688-36.688 36.688c-2.992 3.008-7.072 4.688-11.312 4.688h-185.376l-43.312 43.312c-1.568 1.568-3.392 2.736-5.328 3.52-0.016 0-0.016 0.016-0.032 0.016l-113.168 45.264 19.248 15.392c15.712 12.608 33.424 32 48.928 52.496zM975.056 473.296c-3.216-16.72-13.584-25.296-31.056-25.296h-121.376l-16 16 2.368 2.368 126.96 50.784 12.064-9.664c10.144-8.112 19.504-20.448 27.040-34.192zM896 640h48v-18.88l-48-9.6zM217.040 659.648l27.024 59.456c12.064 26.512 46.832 48.896 75.936 48.896h384c29.104 0 63.872-22.384 75.92-48.88l27.040-59.472c2.816-6.176 6.48-12.848 10.496-19.648h-610.912c4.016 6.8 7.696 13.472 10.496 19.648zM80 640h48v-28.48l-48 9.6zM75.968 507.488l12.064 9.664 126.976-50.784 2.368-2.368-16-16h-121.376c-17.472 0-27.84 8.576-31.056 25.296 7.536 13.744 16.88 26.080 27.024 34.192zM176 128h-128c-8.816 0-16 7.184-16 16v48.4c13.408-10.144 29.92-16.4 48-16.4h112v-32c0-8.816-7.184-16-16-16zM976 128h-128c-8.816 0-16 7.184-16 16v32h112c18.080 0 34.592 6.256 48 16.4v-48.4c0-8.816-7.184-16-16-16z" />
<glyph unicode="&#xe915;" glyph-name="facebook" d="M413.696 394.752c-3.072 0-70.656 0-101.376 0-16.384 0-21.504 6.144-21.504 21.504 0 40.96 0 82.944 0 123.904 0 16.384 6.144 21.504 21.504 21.504h101.376c0 3.072 0 62.464 0 90.112 0 40.96 7.168 79.872 27.648 115.712 21.504 36.864 52.224 61.44 91.136 75.776 25.6 9.216 51.2 13.312 78.848 13.312h100.352c14.336 0 20.48-6.144 20.48-20.48v-116.736c0-14.336-6.144-20.48-20.48-20.48-27.648 0-55.296 0-82.944-1.024-27.648 0-41.984-13.312-41.984-41.984-1.024-30.72 0-60.416 0-92.16h118.784c16.384 0 22.528-6.144 22.528-22.528v-123.904c0-16.384-5.12-21.504-22.528-21.504-36.864 0-115.712 0-118.784 0v-333.824c0-17.408-5.12-23.552-23.552-23.552-43.008 0-84.992 0-128 0-15.36 0-21.504 6.144-21.504 21.504 0 107.52 0 331.776 0 334.848z" />
<glyph unicode="&#xe916;" glyph-name="fast-time" d="M980.608 530.14c-34.642 68.666-86.922 124.75-151.242 163.472l22.386 67.982 19.616-6.46c3.792-1.244 7.692-1.864 11.578-1.864 5.744 0 11.458 1.352 16.746 4.022 8.876 4.482 15.464 12.128 18.548 21.516l17.636 53.53c6.39 19.46-4.234 40.488-23.678 46.874l-71.826 23.64c-7.868 2.59-16.344-1.688-18.936-9.558-2.59-7.868 1.69-16.346 9.558-18.936l71.834-23.644c3.674-1.204 5.756-5.336 4.55-9.004l-17.636-53.53c-0.79-2.406-2.576-3.608-3.572-4.108-0.996-0.504-3.032-1.226-5.436-0.44l-210.55 69.336c-2.384 0.784-3.572 2.554-4.066 3.54-0.502 1-1.224 3.038-0.428 5.464l17.636 53.53c0.79 2.404 2.576 3.608 3.57 4.108 0.998 0.5 3.032 1.226 5.432 0.442l74.658-24.606c7.866-2.594 16.346 1.684 18.94 9.55 2.594 7.868-1.684 16.346-9.55 18.94l-74.674 24.612c-9.4 3.082-19.456 2.318-28.326-2.16-8.876-4.482-15.464-12.126-18.546-21.514l-17.636-53.53c-6.394-19.468 4.206-40.498 23.618-46.874l19.63-6.464-22.416-67.946c-30.59 2.87-61.452 2.186-92.372-2.102-8.206-1.136-13.936-8.71-12.798-16.914 1.136-8.206 8.724-13.948 16.914-12.798 56.606 7.844 113.016 2.692 167.68-15.318 94.652-31.182 171.494-97.344 216.372-186.3 44.878-88.954 52.42-190.056 21.238-284.684-64.31-195.334-275.586-301.924-470.968-237.614-94.622 31.156-171.446 97.308-216.318 186.276-44.872 88.966-52.414 190.076-21.232 284.706 36.826 111.884 125.738 200.754 237.842 237.726 7.866 2.596 12.14 11.076 9.546 18.944-2.596 7.864-11.068 12.136-18.944 9.546-25.454-8.396-50.070-19.378-73.378-32.638h-120.164c-8.284 0-14.998-6.714-14.998-14.998s6.714-14.998 14.998-14.998h74.808c-13.38-10.184-26.138-21.16-38.11-32.916-41.878-41.13-74.526-91.734-95.078-147.066h-104.88c-8.284 0-14.998-6.714-14.998-14.998s6.714-14.998 14.998-14.998h95.046c-16.938-59.278-20.038-120.532-9.546-179.928h-160.216c-8.284 0-14.998-6.714-14.998-14.998s6.714-14.998 14.998-14.998h166.722c7.2-28.010 17.468-55.45 30.804-81.894 18.406-36.494 41.8-69.422 69.32-98.090h-134.818c-8.284 0-14.998-6.714-14.998-14.998s6.714-14.998 14.998-14.998h167.004c38.52-32.124 83.142-57.016 132.214-73.172 41.704-13.728 84.054-20.248 125.744-20.246 169.322 0.012 327.342 107.624 383.096 276.968 33.692 102.234 25.542 211.468-22.946 307.578zM688.282 746.024l20.652 62.598 114.324-37.648-20.62-62.618c-17.844 8.974-36.476 16.694-55.798 23.060-19.334 6.37-38.874 11.222-58.558 14.608zM14.998 668.896h186.508c8.284 0 14.998 6.714 14.998 14.998s-6.714 14.998-14.998 14.998h-186.508c-8.284 0-14.998-6.714-14.998-14.998s6.714-14.998 14.998-14.998zM74.976 593.902c-8.284 0-14.998-6.714-14.998-14.998s6.714-14.998 14.998-14.998h140.986c8.284 0 14.998 6.714 14.998 14.998s-6.714 14.998-14.998 14.998zM135.494 368.98c0 8.284-6.714 14.998-14.998 14.998h-105.498c-8.284 0-14.998-6.714-14.998-14.998s6.714-14.998 14.998-14.998h105.498c8.284-0.002 14.998 6.714 14.998 14.998zM195.472 158.998c0 8.284-6.714 14.998-14.998 14.998h-73.468c-8.284 0-14.998-6.714-14.998-14.998s6.712-14.998 14.998-14.998h73.468c8.284 0 14.998 6.714 14.998 14.998zM319.344 447.876c-54.718-166.23 35.982-345.978 202.18-400.686 32.66-10.762 66.222-16.104 99.638-16.104 48.962 0 97.606 11.472 142.592 34.162 75.684 38.176 131.978 103.546 158.51 184.068 0.042 0.128 0.082 0.256 0.122 0.384l0.118 0.392c54.222 165.964-36.54 345.352-202.39 399.964-30.562 10.188-62.802 15.598-95.006 16.072-32.368 0.478-64.766-4.108-95.742-13.5-17.726-5.374-34.976-12.306-51.512-20.65-75.682-38.19-131.976-103.57-158.51-184.102zM898.238 273.648l-212.568 70.004c1.034 11.882-1.228 23.846-6.732 34.76-5.506 10.916-13.784 19.846-23.952 26.072l69.838 212.032c136.57-52.924 211.712-201.496 173.414-342.868zM636.712 317.984c-8.334-4.2-17.802-4.906-26.668-1.992-18.288 6.018-28.264 25.802-22.244 44.106 4.828 14.674 18.522 23.998 33.202 23.998 3.606 0 7.274-0.564 10.88-1.748 0.006-0.002 0.010-0.004 0.016-0.006s0.010-0.002 0.016-0.004c8.852-2.916 16.038-9.106 20.238-17.432s4.908-17.794 1.998-26.656c-0.002-0.004-0.002-0.006-0.004-0.010s-0.002-0.010-0.004-0.014c-2.914-8.854-9.104-16.042-17.43-20.242zM620.51 636.152c25.364 0 50.826-3.416 75.818-10.258l-69.838-212.032c-11.884 1.034-23.848-1.228-34.762-6.734-3.704-1.868-7.172-4.064-10.394-6.534l-100.056 91.206c-6.124 5.58-15.61 5.142-21.19-0.98s-5.14-15.608 0.98-21.19l101.368-92.4c-1.192-2.502-2.25-5.084-3.13-7.76-5.42-16.472-4.104-34.068 3.704-49.552 7.812-15.486 21.186-27.002 37.656-32.42 4.308-1.418 8.694-2.324 13.096-2.826l5.096-43.628c0.892-7.638 7.372-13.26 14.878-13.26 0.582 0 1.17 0.036 1.76 0.104 8.228 0.96 14.118 8.41 13.156 16.638l-5.112 43.766c2.262 0.844 4.492 1.806 6.678 2.908 10.916 5.506 19.846 13.784 26.070 23.956l212.636-70.026c-23.814-61.892-67.578-112.872-125.102-145.782l-16.734 33.184c-3.73 7.398-12.75 10.37-20.144 6.638-7.396-3.728-10.368-12.748-6.638-20.144l16.758-33.232c-60.678-26.922-127.764-31.968-191.786-14.438l11.678 35.444c2.594 7.866-1.684 16.346-9.552 18.938-7.876 2.596-16.348-1.684-18.938-9.552l-11.68-35.448c-63.578 24.632-113.822 69.956-145.524 125.626l33.078 16.682c7.396 3.73 10.368 12.748 6.638 20.144-3.728 7.398-12.75 10.374-20.144 6.638l-33.042-16.664c-25.748 58.572-32.192 125.85-14.12 191.542l34.93-11.524c1.56-0.516 3.144-0.76 4.7-0.76 6.298 0 12.16 3.998 14.24 10.304 2.596 7.866-1.678 16.348-9.544 18.942l-34.884 11.508c24.008 61.648 67.84 112.402 125.368 145.114l16.432-32.502c2.64-5.222 7.92-8.236 13.398-8.236 2.276 0 4.586 0.522 6.756 1.618 7.392 3.738 10.356 12.76 6.618 20.152l-16.396 32.434c36.78 16.2 75.88 24.396 115.22 24.396z" />
<glyph unicode="&#xe917;" glyph-name="front-car" d="M981.853 654.276c-4.458 0-9.034-0.636-13.601-1.898l-51.677-14.236-53.662 130.72c-15.198 37.036-60.14 67.162-100.171 67.162h-502.209c-40.035 0-84.973-30.127-100.171-67.162l-53.592-130.541-51.028 14.058c-4.563 1.258-9.142 1.898-13.596 1.898-24.419 0-42.147-18.655-42.147-44.363v-30.471c0-30.009 24.41-54.419 54.419-54.419h5.842l-8.659-21.097c-14.123-34.411-25.612-92.657-25.612-129.849v-259.694c0-30.009 24.415-54.419 54.419-54.419h71.076c30.009 0 54.419 24.41 54.419 54.419v64.855h611.474v-64.855c0-30.009 24.41-54.419 54.419-54.419h71.072c30.009 0 54.419 24.41 54.419 54.419v259.694c0 37.188-11.489 95.439-25.616 129.849l-8.659 21.097h6.565c30.005 0 54.419 24.41 54.419 54.419v30.471c0 25.708-17.723 44.363-42.147 44.363zM145.796 554.584l81.172 197.725c9.095 22.151 36.126 40.275 60.070 40.275h449.209c23.945 0 50.976-18.124 60.066-40.275l81.172-197.725c9.095-22.151-3.056-40.275-27.001-40.275h-677.683c-23.945 0-36.095 18.124-27.005 40.275zM327.004 304.489c0-11.972-9.796-21.768-21.768-21.768h-154.203c-11.972 0-21.768 9.796-21.768 21.768v74.006c0 11.972 9.796 21.768 21.768 21.768h154.203c11.972 0 21.768-9.796 21.768-21.768v-74.006zM892.557 304.489c0-11.972-9.796-21.768-21.768-21.768h-154.199c-11.972 0-21.768 9.796-21.768 21.768v74.006c0 11.972 9.796 21.768 21.768 21.768h154.199c11.972 0 21.768-9.796 21.768-21.768v-74.006z" />
<glyph unicode="&#xe918;" glyph-name="play" horiz-adv-x="843" d="M843.294 448l-843.294-512v1024l843.294-512z" />
<glyph unicode="&#xe919;" glyph-name="comment" d="M512.002 934.396c-282.317 0-512-206.712-512-460.8 0-88.815 28.092-174.848 81.374-249.242-10.086-111.565-37.12-194.385-76.373-233.621-5.188-5.188-6.485-13.124-3.209-19.678 2.901-5.854 8.875-9.455 15.275-9.455 0.785 0 1.57 0.051 2.372 0.171 6.912 0.973 167.476 24.081 283.614 91.119 65.946-26.607 136.192-40.090 208.947-40.090 282.316 0 511.998 206.707 511.998 460.796s-229.682 460.8-511.998 460.8zM273.068 405.329c-37.649 0-68.267 30.618-68.267 68.267s30.618 68.267 68.267 68.267c37.649 0 68.267-30.618 68.267-68.267s-30.618-68.267-68.267-68.267zM512.002 405.329c-37.649 0-68.267 30.618-68.267 68.267s30.618 68.267 68.267 68.267c37.649 0 68.266-30.618 68.266-68.267s-30.617-68.267-68.266-68.267zM750.934 405.329c-37.648 0-68.266 30.618-68.266 68.267s30.618 68.267 68.266 68.267c37.649 0 68.267-30.618 68.267-68.267s-30.618-68.267-68.267-68.267z" />
<glyph unicode="&#xe91a;" glyph-name="arrow-left" horiz-adv-x="512" d="M500.396 912.222c3.677-3.66 6.596-8.010 8.588-12.801s3.016-9.929 3.016-15.117c0-5.188-1.025-10.325-3.016-15.116s-4.91-9.141-8.588-12.801l-405.236-405.064 405.236-405.236c3.666-3.667 6.574-8.019 8.558-12.806 1.985-4.794 3.005-9.926 3.005-15.11s-1.021-10.317-3.005-15.11c-1.984-4.787-4.892-9.139-8.558-12.806s-8.019-6.573-12.809-8.557c-4.79-1.99-9.924-3.008-15.108-3.008s-10.319 1.018-15.109 3.008c-4.79 1.984-9.143 4.89-12.809 8.557l-432.939 433.238c-3.683 3.657-6.606 8.006-8.6 12.798s-3.021 9.93-3.021 15.12c0 5.19 1.027 10.328 3.021 15.12s4.918 9.14 8.6 12.797l433.11 432.896c3.648 3.667 7.985 6.577 12.762 8.563s9.898 3.008 15.071 3.008c5.172 0 10.294-1.022 15.071-3.008s9.113-4.896 12.761-8.563z" />
<glyph unicode="&#xe91b;" glyph-name="arrow-right" horiz-adv-x="512" d="M11.604-16.192c-3.678 3.661-6.596 8.013-8.587 12.8-1.991 4.794-3.016 9.933-3.016 15.117 0 5.19 1.025 10.33 3.016 15.117 1.991 4.794 4.91 9.146 8.587 12.8l405.236 405.067-405.236 405.236c-3.666 3.667-6.574 8.019-8.558 12.809s-3.005 9.924-3.005 15.109c0 5.185 1.021 10.319 3.005 15.108s4.892 9.143 8.558 12.809c3.666 3.666 8.019 6.574 12.809 8.559s9.924 3.005 15.109 3.005c5.185 0 10.319-1.021 15.109-3.005s9.143-4.892 12.809-8.559l432.939-433.24c3.683-3.656 6.605-8.006 8.6-12.797s3.021-9.93 3.021-15.12c0-5.19-1.027-10.329-3.021-15.12s-4.918-9.141-8.6-12.797l-433.111-432.897c-3.648-3.667-7.985-6.579-12.761-8.563s-9.898-3.008-15.071-3.008c-5.173 0-10.294 1.024-15.071 3.008s-9.113 4.896-12.761 8.563z" />
<glyph unicode="&#xe91c;" glyph-name="speech-bubble" horiz-adv-x="1117" d="M549.818-31.995c-7.219 0-14.448 1.787-21.001 5.385-13.959 7.666-22.635 22.328-22.635 38.251v87.268c0 24.059-19.577 43.636-43.636 43.636h-69.818c-216.55 0-392.727 176.179-392.727 392.727 0 216.55 176.177 392.727 392.727 392.727h331.636c216.548 0 392.727-176.177 392.727-392.727 0-1.804-0.009-3.6-0.028-5.391-1.029-105.782-33.168-185.059-104.192-257.060-64.991-65.885-159.958-124.458-291.402-205.526-44.265-27.304-94.431-58.247-148.229-92.472-7.126-4.534-15.267-6.819-23.422-6.819zM392.727 840.727c-168.428 0-305.455-137.027-305.455-305.455s137.027-305.455 305.455-305.455h69.818c72.183 0 130.909-58.726 130.909-130.909v-8.234c29.096 18.148 56.632 35.128 82.199 50.897 126.25 77.871 217.47 134.135 275.088 192.535 55.333 56.092 78.238 113.059 79.053 196.62 0.014 1.508 0.023 3.024 0.023 4.545 0 168.428-137.025 305.455-305.455 305.455h-331.636zM724.364 578.909h-331.636c-24.1 0-43.636 19.536-43.636 43.636s19.536 43.636 43.636 43.636h331.636c24.101 0 43.636-19.536 43.636-43.636s-19.535-43.636-43.636-43.636zM724.364 404.364h-331.636c-24.1 0-43.636 19.535-43.636 43.636s19.536 43.636 43.636 43.636h331.636c24.101 0 43.636-19.535 43.636-43.636s-19.535-43.636-43.636-43.636z" />
<glyph unicode="&#xe91d;" glyph-name="home" d="M996.391 514.609c-0.023 0.023-0.047 0.047-0.070 0.070l-417.711 417.695c-17.805 17.813-41.477 27.625-66.656 27.625s-48.852-9.805-66.664-27.617l-417.492-417.484c-0.141-0.141-0.281-0.289-0.422-0.43-36.563-36.773-36.5-96.438 0.18-133.117 16.758-16.766 38.891-26.477 62.555-27.492 0.961-0.094 1.93-0.141 2.906-0.141h16.648v-307.398c0-60.828 49.492-110.32 110.336-110.32h163.422c16.563 0 30 13.43 30 30v241c0 27.758 22.578 50.336 50.336 50.336h96.391c27.758 0 50.336-22.578 50.336-50.336v-241c0-16.57 13.43-30 30-30h163.422c60.844 0 110.336 49.492 110.336 110.32v307.398h15.438c25.172 0 48.844 9.805 66.664 27.617 36.719 36.742 36.734 96.508 0.047 133.273z" />
<glyph unicode="&#xe91e;" glyph-name="limousine" d="M964.020 361.452l-9.1 123.702c-1.57 21.104-7.594 41.040-17.878 59.252-0.054 0.104-0.108 0.208-0.166 0.31-0.024 0.042-0.044 0.084-0.068 0.126-12.396 21.842-30.166 39.602-51.090 52.022l16.86 14.97c5.448-2.574 11.51-4.058 17.926-4.058h54.358c27.096 0 49.138 22.042 49.138 49.138s-22.042 49.138-49.138 49.138h-47.37c-27.096 0-49.138-22.042-49.138-49.138v-6.988c0-5.85 1.204-11.424 3.366-16.494l-13.316-11.824-42.812 77.64c-26.324 47.686-76.496 77.31-130.934 77.31h-365.318c-54.438 0-104.61-29.626-130.936-77.318l-42.808-77.634-13.316 11.824c2.164 5.070 3.366 10.642 3.366 16.494v6.988c0 27.096-22.042 49.138-49.138 49.138h-47.37c-27.096 0.002-49.138-22.040-49.138-49.136s22.042-49.138 49.138-49.138h54.358c6.416 0 12.478 1.484 17.926 4.058l16.858-14.968c-20.926-12.416-38.698-30.168-51.098-52-0.030-0.054-0.056-0.11-0.088-0.164-0.050-0.090-0.098-0.182-0.146-0.272-10.076-17.83-16.058-37.336-17.748-57.882-0.018-0.196-6.416-86.98-9.236-125.102-28.23-11.282-48.238-38.888-48.238-71.096 0-37.384 26.948-68.574 62.434-75.218v-51.892c0-24.152 19.638-43.8 43.78-43.8h84.92c24.14 0 43.782 19.648 43.782 43.8v50.566h412.358c8.286 0 15 6.714 15 15s-6.714 15-15 15h-570.73c-25.664 0-46.542 20.878-46.542 46.542s20.878 46.542 46.542 46.542h172.384c32.426-38.298 79.47-60.116 130.226-60.116h242.24c50.756 0 97.8 21.816 130.226 60.116h172.384c25.664 0 46.542-20.878 46.542-46.542s-20.878-46.542-46.542-46.542h-206.73c-8.286 0-15-6.714-15-15s6.714-15 15-15h48.36v-50.566c0-24.152 19.64-43.8 43.782-43.8h84.92c24.14 0 43.78 19.648 43.78 43.8v51.892c35.486 6.644 62.434 37.834 62.434 75.218-0.002 32.214-20.018 59.824-48.256 71.102zM216.64 163.24c0-7.61-6.182-13.8-13.782-13.8h-84.918c-7.598 0-13.78 6.192-13.78 13.8v50.566h112.48zM914.622 522.438c5.834-12.352 9.344-25.594 10.38-39.498l3.842-52.222h-126.93c-1.030 0-1.654 0.532-1.998 0.978-0.494 0.642-0.636 1.368-0.426 2.158l23.306 87.556c0.164 0.616 0.702 1.028 1.338 1.028zM908.354 656.914c0 10.552 8.586 19.138 19.138 19.138h47.37c10.552 0 19.138-8.586 19.138-19.138s-8.586-19.138-19.138-19.138h-54.358c-6.7 0-12.15 5.452-12.15 12.15zM49.138 637.776c-10.552 0-19.138 8.586-19.138 19.138s8.586 19.138 19.138 19.138h47.37c10.552 0 19.138-8.586 19.138-19.138v-6.988c0-6.7-5.452-12.15-12.15-12.15zM97.714 465.314c0.828 11.23 1.348 18.298 1.376 18.656 1.114 13.548 4.584 26.438 10.264 38.466h77.354c0.636 0 1.174-0.412 1.334-1.018l23.312-87.57c0.208-0.788 0.066-1.512-0.428-2.154-0.344-0.448-0.968-0.978-1.998-0.978h-113.764c0.99 13.412 1.872 25.4 2.55 34.598zM756.2 366.892c-4.636 0-9.014-2.144-11.854-5.808-26.76-34.512-67.3-54.306-111.226-54.306h-242.24c-43.926 0-84.466 19.794-111.226 54.306-2.84 3.664-7.216 5.808-11.854 5.808h-177.35c0.824 11.152 1.672 22.622 2.5 33.824h115.978c10.186 0 19.584 4.628 25.786 12.7 6.198 8.064 8.248 18.328 5.63 28.156l-23.314 87.576c-3.66 13.712-16.128 23.29-30.322 23.29h-56.672c20.89 21.65 49.978 34.382 80.766 34.382h171.62c8.286 0 15 6.714 15 15s-6.714 15-15 15h-171.622c-8.396 0-16.69-0.76-24.804-2.206l38.676 70.136c21.044 38.126 61.152 61.81 104.668 61.81h365.32c43.516 0 83.624-23.684 104.666-61.802l38.678-70.144c-8.116 1.446-16.408 2.206-24.806 2.206h-360.778c-8.286 0-15-6.714-15-15s6.714-15 15-15h360.78c30.79 0 59.874-12.732 80.754-34.382h-69.818c-14.194 0-26.662-9.576-30.326-23.298l-23.308-87.562c-2.62-9.832-0.568-20.096 5.628-28.16 6.202-8.070 15.6-12.7 25.786-12.7h129.136l2.488-33.824h-177.34zM906.060 149.44h-84.92c-7.6 0-13.782 6.192-13.782 13.8v50.566h112.48v-50.566c0.002-7.61-6.18-13.8-13.778-13.8zM712.82 552.428h-401.64c-12.456 0-24.216-5.45-32.268-14.954-8.052-9.502-11.498-21.998-9.456-34.284l12.284-73.82c8.918-53.586 54.818-92.478 109.14-92.478h242.24c54.322 0 100.222 38.892 109.14 92.478l12.284 73.82c2.042 12.286-1.402 24.782-9.456 34.284-8.050 9.504-19.812 14.954-32.268 14.954zM494.12 522.428h35.762v-155.536h-35.762zM464.12 366.892h-35.76v155.536h35.76zM559.88 522.428h35.76v-155.536h-35.76zM311.334 434.296l-12.284 73.818c-0.814 4.89 1.374 8.342 2.748 9.964 1.376 1.626 4.424 4.348 9.38 4.348h21.42v-130.714c-10.878 11.372-18.506 26.006-21.264 42.584zM362.6 371.958v150.47h35.76v-155.536h-7.478c-9.924 0-19.46 1.782-28.282 5.066zM625.64 366.892v155.536h35.76v-150.47c-8.824-3.284-18.36-5.064-28.282-5.064h-7.478zM724.95 508.116l-12.284-73.818c-2.758-16.578-10.386-31.214-21.266-42.584v130.714h21.42c4.958 0 8.006-2.722 9.38-4.348 1.376-1.622 3.564-5.076 2.75-9.964z" />
<glyph unicode="&#xe91f;" glyph-name="linkedin" d="M136.484 959.28c-75.201 0-136.429-61.216-136.484-136.476 0-75.26 61.228-136.488 136.484-136.488 75.229 0 136.425 61.228 136.425 136.488 0 75.253-61.2 136.476-136.425 136.476zM238.917 631.479h-204.882c-9.746 0-17.651-7.901-17.651-17.655v-659.453c0-9.75 7.905-17.651 17.651-17.651h204.878c9.75 0 17.655 7.905 17.655 17.651v659.453c0.004 9.758-7.901 17.655-17.651 17.655zM762.689 639.242c-74.977 0-140.866-22.831-181.072-60.060v34.641c0 9.754-7.905 17.655-17.655 17.655h-196.532c-9.75 0-17.655-7.901-17.655-17.655v-659.453c0-9.75 7.905-17.651 17.655-17.651h204.685c9.75 0 17.655 7.905 17.655 17.651v326.264c0 93.611 17.218 151.634 103.149 151.634 84.66-0.102 90.996-62.321 90.996-157.227v-320.671c0-9.75 7.905-17.651 17.659-17.651h204.78c9.746 0 17.651 7.905 17.651 17.651v361.739c-0.004 150.446-29.705 323.133-261.315 323.133z" />
<glyph unicode="&#xe920;" glyph-name="location" d="M512 906.667c158.848 0 288-130.304 288-291.029 0-54.443-23.979-121.984-58.88-189.355-76.843-148.352-204.843-297.771-204.843-297.771-6.059-7.083-14.933-11.179-24.277-11.179s-18.219 4.096-24.277 11.179c0 0-128 149.419-204.843 297.771-34.901 67.371-58.88 134.912-58.88 189.355 0 160.725 129.152 291.029 288 291.029zM512 736c-64.768 0-117.333-52.565-117.333-117.333s52.565-117.333 117.333-117.333 117.333 52.565 117.333 117.333-52.565 117.333-117.333 117.333zM716.117 218.581c34.688-10.411 63.275-23.296 83.029-38.4 12.8-9.728 22.187-19.243 22.187-30.848 0-6.827-3.883-13.013-9.344-19.2-9.045-10.197-22.485-19.371-39.125-27.904-58.795-30.080-153.856-48.896-260.864-48.896s-202.069 18.816-260.864 48.896c-16.64 8.533-30.080 17.707-39.125 27.904-5.461 6.187-9.344 12.373-9.344 19.2 0 11.605 9.387 21.12 22.187 30.848 19.755 15.104 48.341 27.989 83.029 38.4 16.896 5.077 26.496 22.955 21.419 39.851-5.077 16.939-22.955 26.539-39.851 21.461-52.821-15.915-93.867-37.717-118.528-61.824-21.675-21.12-32.256-44.757-32.256-68.736 0-29.952 16.939-59.819 51.371-84.736 60.416-43.691 181.76-75.264 321.963-75.264s261.547 31.573 321.963 75.264c34.432 24.917 51.371 54.784 51.371 84.736 0 23.979-10.581 47.616-32.256 68.736-24.661 24.107-65.707 45.909-118.528 61.824-16.896 5.077-34.773-4.523-39.851-21.461-5.077-16.896 4.523-34.773 21.419-39.851z" />
<glyph unicode="&#xe921;" glyph-name="location-1" d="M1023.022-43.674l-150 395.139c-1.246 3.282-3.604 6.022-6.66 7.744l-159.772 90.012 46.646 73.96c28.628 45.428 43.762 97.926 43.762 151.818 0 157.15-127.85 284.999-284.999 284.999s-284.999-127.85-284.999-284.999c0-53.906 15.14-106.406 43.784-151.822 0.766-1.218 46.634-73.96 46.634-73.96l-159.778-90.008c-3.058-1.722-5.416-4.462-6.662-7.744l-150-395.139c-2.242-5.904-0.544-12.58 4.242-16.698 4.792-4.12 11.642-4.798 17.144-1.696l241.136 135.852 241.136-135.852c4.57-2.574 10.156-2.574 14.726 0l241.136 135.852 241.136-135.852c2.3-1.296 4.838-1.932 7.362-1.932 3.512 0 6.996 1.23 9.784 3.626 4.79 4.12 6.486 10.796 4.244 16.7zM527.001 182.578c9.384 3.312 17.52 9.692 23.042 18.434 0.762 1.2 128.458 203.668 128.458 203.668l65.038-306.015-216.538-121.992zM296.159 539.183c-25.618 40.62-39.158 87.584-39.158 135.818 0 140.608 114.392 255 255 255s255-114.392 255-255c0-48.224-13.536-95.192-39.138-135.818-2.002-3.174-199.646-316.597-203.094-322.011-0.032-0.046-0.060-0.094-0.090-0.14-2.782-4.4-7.52-7.030-12.678-7.030-5.162 0-9.922 2.642-12.708 7.022-2.004 3.178-200.042 317.221-203.066 322.049-0.022 0.036-0.046 0.072-0.068 0.11zM177.096 335.739l139.832 78.774-24.36-114.608c-1.722-8.104 3.45-16.068 11.552-17.792 1.052-0.224 2.102-0.332 3.134-0.332 6.93 0 13.158 4.834 14.656 11.884l23.594 111.004 128.442-203.698c5.542-8.718 13.684-15.084 23.052-18.392v-205.912l-216.534 121.994 28.974 136.318c1.722 8.104-3.45 16.068-11.552 17.792-8.112 1.732-16.070-3.452-17.792-11.552l-29.858-140.472-206.512-116.348zM773.764 100.746l-66.686 313.769 139.826-78.776 133.374-351.339zM677.001 675.001c0 90.98-74.020 165-165 165s-165-74.020-165-165 74.020-165 165-165 165 74.020 165 165zM377.001 675.001c0 74.44 60.56 135 135 135s135-60.56 135-135-60.56-135-135-135-135 60.56-135 135zM617.001 675.001c0 57.896-47.104 105-105 105s-105-47.104-105-105 47.104-105 105-105 105 47.104 105 105zM437.001 675.001c0 41.356 33.644 75 75 75s75-33.644 75-75-33.644-75-75-75-75 33.644-75 75z" />
<glyph unicode="&#xe922;" glyph-name="search" d="M1011.488 8.835l-291.197 291.197c56.405 69.673 90.367 158.206 90.367 254.632 0 223.486-181.844 405.33-405.33 405.33s-405.328-181.842-405.328-405.328 181.844-405.33 405.33-405.33c96.425 0 184.958 33.962 254.632 90.367l291.197-291.197c8.32-8.32 19.242-12.502 30.166-12.502s21.846 4.182 30.166 12.502c16.682 16.682 16.682 43.648-0.002 60.329zM405.33 234.669c-176.468 0-319.997 143.529-319.997 319.997s143.529 319.997 319.997 319.997 319.997-143.529 319.997-319.997-143.531-319.997-319.997-319.997z" />
<glyph unicode="&#xe923;" glyph-name="map" d="M256.758 416.867h-45.922c-12.047 0-22.922-7.172-27.688-18.219l-127.125-296.008 301.906 154.195c-36.141 50.008-71.898 105.164-101.172 160.031zM840.844 398.648c-4.758 11.047-15.641 18.219-27.68 18.219h-45.922c-55.281-103.594-135.82-210.648-187.055-269.547-36.031-41.328-100.391-41.281-136.367 0-3.68 4.227-22.891 26.469-49.352 60.672l-54.43-27.813 205.891-205.492 390.125 202.25zM18.883 16.133l-16.422-38.242c-8.5-19.789 6.063-41.891 27.68-41.891h442.102c2.766 2.055 2.797 1.93 17.641 9.625l-206.195 205.766zM1021.539-22.109l-61.688 143.641-357.875-185.531h391.883c21.57 0 36.195 22.063 27.68 41.891zM542.117 689.352c0 16.578-13.516 30.055-30.117 30.055-16.609 0-30.117-13.477-30.117-30.055 0-16.57 13.508-30.055 30.117-30.055 16.602 0 30.117 13.484 30.117 30.055zM534.727 188.766c10.141 11.641 248.32 287.156 248.32 476.547 0 390.531-542.094 395.297-542.094 0 0-189.391 238.18-464.906 248.32-476.547 12.008-13.773 33.469-13.758 45.453 0zM421.648 689.352c0 49.719 40.531 90.164 90.352 90.164 49.813 0 90.344-40.445 90.344-90.164 0-49.711-40.531-90.156-90.344-90.156-49.82 0-90.352 40.445-90.352 90.156z" />
<glyph unicode="&#xe924;" glyph-name="maps-and-flags" d="M512 960c-204.49 0-370.854-166.364-370.854-370.852 0-253.776 331.878-626.334 346.008-642.070 13.272-14.782 36.444-14.756 49.692 0 14.13 15.736 346.008 388.294 346.008 642.070-0.004 204.488-166.366 370.852-370.854 370.852zM512 402.562c-102.884 0-186.584 83.702-186.584 186.586s83.702 186.584 186.584 186.584 186.582-83.702 186.582-186.586-83.7-186.584-186.582-186.584z" />
<glyph unicode="&#xe925;" glyph-name="medal" d="M781.496 280.784c76.104 71.748 123.694 173.428 123.694 286.026 0 89.622-29.37 174.034-84.936 244.11-53.9 67.976-129.702 116.832-213.442 137.568-10.716 2.65-21.566-3.884-24.222-14.606-2.654-10.722 3.884-21.566 14.606-24.22 157.79-39.074 267.992-180.060 267.992-342.85 0-194.75-158.44-353.19-353.19-353.19s-353.188 158.438-353.188 353.188c0 162.79 110.202 303.776 267.99 342.85 10.722 2.654 17.26 13.498 14.606 24.22s-13.496 17.264-24.22 14.606c-83.74-20.738-159.542-69.594-213.44-137.57-55.566-70.076-84.936-154.488-84.936-244.108 0-112.598 47.59-214.28 123.694-286.026l-104.708-200.254c-5.106-9.766-1.35-21.822 8.398-26.96l0.72-0.38c4.474-2.358 9.67-2.93 14.552-1.612l145.116 39.288 50.564-141.59c2.672-7.482 9.522-12.674 17.448-13.226 0.466-0.032 0.93-0.048 1.392-0.048 7.404 0 14.252 4.106 17.718 10.732l118.296 226.242 118.296-226.24c3.466-6.628 10.314-10.734 17.718-10.732 0.46 0 0.926 0.016 1.392 0.048 7.926 0.55 14.776 5.744 17.448 13.226l50.564 141.59 145.116-39.288c4.88-1.324 10.080-0.746 14.552 1.612l0.72 0.38c9.748 5.138 13.502 17.194 8.398 26.96zM379.44 5.78l-41.406 115.946c-3.51 9.83-13.988 15.306-24.062 12.578l-119.892-32.46 79.682 152.394c55.278-42.234 122.032-70.154 194.702-78.196zM710.026 134.304c-10.072 2.726-20.552-2.75-24.062-12.578l-41.404-115.946-89.026 170.262c72.67 8.042 139.424 35.962 194.702 78.196l79.682-152.394zM218.81 566.81c0-161.664 131.524-293.19 293.19-293.19s293.19 131.524 293.19 293.19-131.526 293.19-293.19 293.19-293.19-131.524-293.19-293.19zM765.19 566.81c0-139.61-113.58-253.19-253.19-253.19s-253.19 113.58-253.19 253.19 113.58 253.19 253.19 253.19 253.19-113.58 253.19-253.19zM481.804 693.754l-24.742-47.808c-2.888-5.58-8.312-9.52-14.508-10.542l-53.116-8.758c-12.59-2.076-22.86-10.904-26.804-23.040s-0.824-25.316 8.142-34.396l37.824-38.304c4.412-4.47 6.486-10.846 5.54-17.056l-8.084-53.222c-1.916-12.616 3.306-25.112 13.628-32.614 10.324-7.5 23.822-8.604 35.23-2.884l48.12 24.134c5.612 2.816 12.316 2.818 17.932 0l48.118-24.134c4.846-2.43 10.068-3.628 15.264-3.628 7.036 0 14.026 2.198 19.964 6.512 10.324 7.502 15.546 19.998 13.63 32.612l-8.084 53.222c-0.944 6.21 1.128 12.588 5.542 17.056l37.824 38.304c8.966 9.080 12.086 22.26 8.142 34.396s-14.214 20.964-26.804 23.040l-53.114 8.758c-6.2 1.022-11.622 4.962-14.51 10.542l-24.742 47.808c-5.866 11.334-17.436 18.374-30.196 18.374-12.762 0.002-24.332-7.038-30.196-18.372zM574.94 595.936l41.674-6.872-29.678-30.056c-13.24-13.41-19.456-32.538-16.626-51.166l6.342-41.76-37.754 18.936c-8.424 4.226-17.662 6.338-26.902 6.338-9.238 0-18.48-2.114-26.9-6.338l-37.754-18.936 6.342 41.758c2.83 18.63-3.384 37.758-16.626 51.17l-29.678 30.054 41.676 6.872c18.592 3.066 34.862 14.888 43.526 31.624l19.418 37.512 19.414-37.512c8.66-16.734 24.932-28.558 43.526-31.624zM532 940c0-11.046-8.954-20-20-20s-20 8.954-20 20c0 11.046 8.954 20 20 20s20-8.954 20-20z" />
<glyph unicode="&#xe926;" glyph-name="menu" d="M984 488h-944c-22.092 0-40-17.908-40-40s17.908-40 40-40h944c22.092 0 40 17.908 40 40s-17.908 40-40 40zM984 808h-944c-22.092 0-40-17.908-40-40s17.908-40 40-40h944c22.092 0 40 17.908 40 40s-17.908 40-40 40zM984 168h-944c-22.092 0-40-17.908-40-40s17.908-40 40-40h944c22.092 0 40 17.908 40 40s-17.908 40-40 40z" />
<glyph unicode="&#xe927;" glyph-name="next" d="M364.131 747.94c-0.279 0.007-0.608 0.010-0.938 0.010-23.567 0-42.671-19.104-42.671-42.671 0-13.222 6.014-25.040 15.455-32.867l0.071-0.057 261.083-223.666-261.083-223.584c-10.603-7.856-17.4-20.326-17.4-34.383 0-23.567 19.104-42.671 42.671-42.671 11.77 0 22.427 4.765 30.147 12.472l-0.001-0.001 298.917 255.75c9.187 7.874 14.971 19.491 14.971 32.458s-5.784 24.584-14.914 32.41l-0.058 0.048-298.917 256c-7.254 6.466-16.799 10.5-27.281 10.755l-0.052 0.001z" />
<glyph unicode="&#xe928;" glyph-name="paper-plane" d="M373.333 208.555v-197.888c0-13.824 8.875-26.069 22.016-30.421 3.285-1.067 6.656-1.579 9.984-1.579 9.984 0 19.627 4.693 25.771 13.056l115.755 157.525zM1010.56 954.069c-9.813 6.955-22.699 7.893-33.365 2.304l-960-501.333c-11.349-5.931-18.048-18.048-17.109-30.805 0.981-12.8 9.472-23.723 21.547-27.861l266.88-91.221 568.363 485.973-439.808-529.877 447.275-152.875c3.328-1.109 6.827-1.707 10.325-1.707 5.803 0 11.563 1.579 16.64 4.651 8.107 4.949 13.611 13.269 15.019 22.613l117.333 789.333c1.749 11.947-3.285 23.808-13.099 30.805z" />
<glyph unicode="&#xe929;" glyph-name="right-arrow" d="M1000.41 427.127h-976.738c-11.618 0-21.005 9.387-21.005 21.005s9.387 21.005 21.005 21.005h925.999l-127.475 127.474c-8.205 8.205-8.205 21.53 0 29.735s21.53 8.205 29.734 0l163.379-163.379c6.042-6.042 7.812-15.036 4.531-22.912-3.281-7.808-10.961-12.928-19.43-12.928zM836.821 263.552c-5.38 0-10.765 2.035-14.835 6.17-8.205 8.205-8.205 21.53 0 29.734l163.58 163.58c8.205 8.205 21.53 8.205 29.734 0 8.205-8.209 8.205-21.534 0-29.739l-163.58-163.575c-4.134-4.134-9.515-6.17-14.899-6.17z" />
<glyph unicode="&#xe92a;" glyph-name="star" d="M1004.868 580.208c-7.518 22.385-26.897 38.705-50.219 42.272l-271.508 41.488-121.952 259.792c-10.4 22.144-32.625 36.24-57.040 36.24-24.432 0-46.64-14.096-57.040-36.24l-121.968-259.808-271.504-41.488c-23.328-3.568-42.704-19.872-50.208-42.272s-1.84-47.072 14.656-64l198.272-203.313-46.961-287.63c-3.872-23.808 6.224-47.744 25.92-61.662 19.68-13.926 45.664-15.334 66.832-3.652l242.016 133.837 242.016-133.837c9.552-5.282 20.064-7.868 30.528-7.868 12.736 0 25.472 3.866 36.304 11.52 19.696 13.901 29.776 37.837 25.904 61.662l-46.96 287.63 198.284 203.313c16.469 16.928 22.135 41.6 14.626 64.015z" />
<glyph unicode="&#xe92b;" glyph-name="download" d="M765.123 493.248c-5.181 11.456-16.573 18.752-29.117 18.752h-128v416c0 17.664-14.336 32-32 32h-128.001c-17.664 0-32-14.336-32-32v-416h-128c-12.544 0-23.936-7.36-29.12-18.752-5.248-11.456-3.2-24.832 5.056-34.304l224-256.003c6.080-6.973 14.848-10.941 24.065-10.941s17.981 4.029 24.064 10.941l224 256.003c8.32 9.408 10.24 22.848 5.053 34.304zM864 256v-192h-704v192h-128v-256c0-35.389 28.672-64 64-64h832c35.389 0 64 28.611 64 64v256h-128z" />
<glyph unicode="&#xe92c;" glyph-name="email" d="M592.149 332.621c-24.392-16.986-52.724-25.965-81.937-25.965-29.21 0-57.542 8.979-81.934 25.965l-401.751 279.746c-2.229 1.552-4.4 3.17-6.528 4.834v-458.392c0-52.557 40.835-94.266 90.255-94.266h799.915c50.317 0 90.253 42.65 90.253 94.266v458.394c-2.131-1.668-4.307-3.29-6.541-4.844l-401.732-279.738zM58.394 662.285l401.75-279.748c15.208-10.59 32.637-15.884 50.067-15.884 17.432 0 34.863 5.296 50.071 15.884l401.747 279.748c24.045 16.73 38.394 44.73 38.394 74.95 0 51.962-40.474 94.234-90.221 94.234h-799.978c-49.749-0.002-90.224-42.274-90.224-94.284 0-30.17 14.354-58.17 38.394-74.9z" />
<glyph unicode="&#xe92d;" glyph-name="padlock" d="M806.656 576h-30.643v128c0 141.184-109.926 256-245.103 256s-245.107-114.816-245.107-256v-128h-30.638c-50.655 0-91.915-43.051-91.915-96v-448c0-52.947 41.26-96 91.915-96h551.491c50.656 0 91.91 43.053 91.91 96v448c0 52.949-41.254 96-91.91 96zM367.505 704c0 94.123 73.287 170.667 163.404 170.667s163.407-76.544 163.407-170.667v-128h-326.812v128zM571.761 246.528v-97.197c0-23.552-18.26-42.662-40.851-42.662s-40.851 19.11-40.851 42.662v97.197c-24.306 14.803-40.851 42.029-40.851 73.472 0 47.061 36.643 85.333 81.702 85.333s81.702-38.272 81.702-85.333c0-31.443-16.545-58.669-40.851-73.472z" />
<glyph unicode="&#xe92e;" glyph-name="quote" horiz-adv-x="1266" d="M753.668-50.142c0 66.063 0 132.128 0 200.322 99.501-2.13 182.067 29.836 243.461 108.687 33.872 42.621 57.16 102.292 57.16 149.176-114.319 0-230.757 0-347.196 0 0 185.407 0 368.682 0 551.956 182.067 0 364.133 0 548.315 0 0-6.393 0-10.656 0-17.049 0-168.357 0-336.715 0-502.94 0-236.553-152.427-428.352-381.068-479.498-38.106-10.655-78.33-12.787-120.672-10.655zM1102.98 454.928c0-2.13 2.117-4.262 2.117-4.262 8.469-164.095-105.852-311.141-266.746-343.107-12.703-2.132-29.64-2.132-35.991-8.525-6.351-8.523-2.117-25.574-2.117-38.359 0-21.312 0-42.623 0-66.065 29.638 6.393 57.16 8.525 84.681 14.917 192.652 51.148 323.91 221.636 323.91 424.091 0 155.57 0 309.010 0 464.581 0 4.262 0 8.524 0 12.787-152.429 0-302.739 0-453.049 0 0-153.439 0-304.749 0-456.057 116.438 0 230.759 0 347.196 0zM44.459-50.142c0 66.063 0 132.128 0 200.322 95.267-2.13 175.714 27.706 237.109 102.294 38.106 44.753 61.393 104.424 63.51 157.702-114.319 0-230.757 0-347.195 0 2.117 183.276 2.117 366.55 2.117 549.825 182.066 0 364.131 0 546.199 0 0-4.262 0-8.524 0-12.787 0-170.488 0-343.107 0-513.596-2.117-223.766-148.193-413.433-364.133-468.843-44.458-12.787-88.916-17.049-137.608-14.917zM501.741 913.116c-152.427 0-302.737 0-453.048 0 0-153.44 0-304.748 0-458.188 116.438 0 232.875 0 347.196 0 10.584-176.88-120.672-338.845-302.738-353.762 0-34.097 0-70.326 0-106.556 27.522 6.393 55.043 8.525 82.565 17.049 192.65 49.016 323.909 221.635 326.025 424.091 0 155.57 0 309.010 0 464.58 0 2.131 0 6.393 0 12.787z" />
<glyph unicode="&#xe92f;" glyph-name="quote-2" horiz-adv-x="1434" d="M409.6-51.712h-305.152l202.752 405.504h-303.104v606.208h606.208v-606.208l-200.704-405.504zM139.264-31.232h258.048l194.56 389.12v581.632h-567.296v-565.248h315.392l-200.704-405.504zM1216.512-51.712h-303.104l202.752 403.456h-303.104v608.256h606.208v-606.208l-202.752-405.504zM948.224-31.232h258.048l194.56 389.12v581.632h-567.296v-565.248h315.392l-200.704-405.504z" />
<glyph unicode="&#xe930;" glyph-name="double-right-arrow-2" d="M25.196 508.807l425.948 425.95c33.595 33.595 88.083 33.595 121.676 0 33.597-33.595 33.597-88.081 0-121.676l-365.070-365.069 365.070-365.067c33.597-33.597 33.597-88.079 0-121.677-33.592-33.597-88.081-33.597-121.676 0l-425.948 425.948c-33.595 33.51-33.595 87.996 0 121.591zM537.349 534.6l338.166 356.414c33.981 35.768 89.021 35.768 122.998 0 33.981-35.769 33.981-93.793 0-129.606l-276.69-291.611 276.69-291.611c33.981-35.768 33.981-93.834 0-129.608-33.976-35.768-89.016-35.768-122.998 0l-338.166 356.419c-33.979 35.768-33.979 93.791 0 129.603z" />
<glyph unicode="&#xe931;" glyph-name="playstore-1" horiz-adv-x="1022" d="M75.875 922.289c-12.125-16.023-18.875-35.734-18.875-56.828v-834.907c0-19.594 5.844-38 16.398-53.375l454.281 473.844zM569.274 494.414l147.375 153.719-518.039 299.086c-22.484 12.984-48.281 16.063-72.352 9.297zM569.274 407.64l-447.492-466.766c9.648-3.242 19.633-4.875 29.625-4.875 16.211 0 32.43 4.266 47.203 12.797l521.766 301.242zM921.657 529.765l-151.453 87.445-159.328-166.18 163.047-170.078 147.734 85.297c29.563 17.063 47.211 47.633 47.211 81.758 0 34.133-17.648 64.695-47.211 81.758z" />
<glyph unicode="&#xe932;" glyph-name="position" d="M712.577 442.722h-168.907v161.218c83.894 15.007 147.787 88.459 147.787 176.603 0 98.954-80.505 179.458-179.458 179.458s-179.458-80.503-179.458-179.458c0-88.144 63.893-161.594 147.787-176.603v-161.218h-168.907c-139.703 0-253.361-113.658-253.361-253.361s113.658-253.361 253.361-253.361h401.155c139.703 0 253.361 113.658 253.361 253.361s-113.658 253.361-253.361 253.361zM395.883 780.542c0 64.026 52.089 116.117 116.117 116.117s116.117-52.091 116.117-116.117-52.089-116.117-116.117-116.117c-64.029 0-116.117 52.089-116.117 116.117zM712.577-0.66h-401.155c-104.777 0-190.021 85.243-190.021 190.021s85.243 190.021 190.021 190.021h168.907v-84.454h-168.907c-58.21 0-105.567-47.357-105.567-105.567s47.357-105.567 105.567-105.567h401.155c58.21 0 105.567 47.357 105.567 105.567s-47.357 105.567-105.567 105.567h-168.907v84.454h168.907c104.777 0 190.021-85.243 190.021-190.021s-85.243-190.021-190.021-190.021zM543.67 189.361v42.227h168.907c23.284 0 42.227-18.943 42.227-42.227s-18.943-42.227-42.227-42.227h-401.155c-23.284 0-42.227 18.943-42.227 42.227s18.943 42.227 42.227 42.227h168.907v-42.227h63.34z" />
<glyph unicode="&#xe933;" glyph-name="price-tag" d="M886.403 335.598c-8.16 4.779-18.608 2.049-23.355-6.094l-195.695-333.77c-14.136-24.463-45.496-32.898-69.209-19.206l-38.121 24.703c-7.92 5.14-18.49 2.885-23.611-5.036-5.14-7.904-2.869-18.49 5.036-23.611l38.872-25.164c13.402-7.75 28.066-11.421 42.543-11.421 29.517 0 58.232 15.279 73.988 42.561l195.625 333.686c4.767 8.124 2.055 18.59-6.072 23.351zM938.044 960h-273.148c-52.82 0-92.17-16.815-131.572-56.217-6.674-6.676-6.674-17.465 0-24.139 6.676-6.676 17.465-6.676 24.139 0 33.256 33.256 63.387 46.214 107.432 46.214h273.148c28.236 0 51.215-22.979 51.215-51.215v-273.15c0-44.063-12.958-74.176-46.23-107.432l-506.998-507.717c-19.36-19.326-53.094-19.342-72.418 0l-313.866 313.866c-9.679 9.679-15.007 22.535-15.007 36.227 0 13.674 5.326 26.53 14.989 36.193l458.242 457.592c7.050-1.793 14.118-3.585 21.442-5.548 69.449-18.608 124.249-37.831 165.102-54.989-8.040-14.886-12.548-31.565-12.548-48.689 0-56.491 45.94-102.431 102.431-102.431s102.431 45.94 102.431 102.431c0 56.491-45.94 102.431-102.431 102.431-9.441 0-17.071-7.648-17.071-17.071s7.63-17.071 17.071-17.071c37.661 0 68.287-30.627 68.287-68.287s-30.627-68.287-68.287-68.287-68.287 30.627-68.287 68.287c0 12.292 3.363 24.293 9.561 34.74 29.569-14.152 48.056-26.086 55.365-33.7-3.125-0.888-7.956-1.879-15.245-2.509-9.389-0.836-16.337-9.117-15.501-18.506 0.786-8.877 8.228-15.587 16.987-15.587 0.494 0 1.006 0.034 1.518 0.068 10.499 0.938 42.441 3.755 48.587 26.65 16.815 62.807-229.581 132.222-279.142 145.504-75.817 20.316-148.627 34.212-205.050 39.128-69.329 6.060-103.097-1.827-109.447-25.556-3.039-11.387-11.147-41.621 127.27-96.199 8.759-3.465 18.694 0.836 22.143 9.611s-0.854 18.694-9.629 22.143c-66.87 26.376-94.578 45.702-103.455 54.8 21.050 6.18 93.042 4.387 208.977-21.971l-443.443-442.831c-16.133-16.133-25.010-37.557-25.010-60.348 0-22.809 8.877-44.249 25.010-60.366l313.864-313.864c16.099-16.115 37.541-24.994 60.332-24.994 22.809 0 44.233 8.877 60.366 25.010l507.015 507.699c39.418 39.402 56.217 78.752 56.217 131.572v273.148c0.002 47.068-38.29 85.36-85.358 85.36zM558.964 511.131c-6.674 6.676-17.465 6.676-24.139 0l-9.219-9.219c-13.504 8.945-29.619 14.22-46.998 14.22-47.066 0-85.36-38.292-85.36-85.36 0-25.438 10.499-45.548 19.65-60.246 8.537-13.708 14.494-33.238 14.494-42.185 0-28.236-22.979-51.215-51.215-51.215s-51.215 22.979-51.215 51.215c0 10.363 3.089 20.35 8.929 28.885 5.326 7.768 3.329 18.404-4.439 23.729-7.784 5.31-18.404 3.329-23.729-4.439-9.749-14.238-14.904-30.899-14.904-48.176 0-17.379 5.276-33.494 14.22-46.998l-9.219-9.219c-6.676-6.674-6.676-17.465 0-24.139 3.329-3.329 7.7-5.002 12.070-5.002s8.741 1.673 12.070 5.002l9.219 9.219c13.504-8.945 29.619-14.22 46.998-14.22 47.066 0 85.36 38.292 85.36 85.36 0 16.627-8.262 41.963-19.65 60.246-10.157 16.303-14.494 28.919-14.494 42.185 0 28.236 22.979 51.215 51.215 51.215 13.692 0 26.068-5.464 35.253-14.254 0.29-0.308 0.392-0.716 0.682-1.024 0.308-0.29 0.716-0.392 1.024-0.682 8.793-9.185 14.254-21.562 14.254-35.253s-5.344-26.58-15.041-36.277c-6.676-6.658-6.676-17.465-0.018-24.139 6.64-6.676 17.465-6.658 24.139-0.018 16.151 16.151 25.062 37.609 25.062 60.434 0 17.379-5.276 33.494-14.22 46.998l9.219 9.219c6.68 6.674 6.68 17.465 0.004 24.139z" />
<glyph unicode="&#xe934;" glyph-name="price-tag-1" d="M1023.643 763.583c0-155.573-67.823-268.598-70.675-273.312-5.744-9.389-15.688-14.539-25.949-14.539-5.388 0-10.815 1.426-15.728 4.397-14.341 8.716-18.937 27.375-10.261 41.716 0.634 1.030 61.841 103.913 61.841 241.738 0 78.599-51.105 135.646-121.543 135.646-67.031 0-121.543-54.512-121.543-121.582 0-28.563 13.826-101.14 19.135-126.693 3.447-16.441-7.131-32.525-23.572-35.972-16.441-3.367-32.525 7.131-35.932 23.532-2.1 10.023-20.482 99.12-20.482 139.132 0 100.546 81.807 182.353 182.393 182.353 103.913 0 182.314-84.422 182.314-196.417zM846.48 715.766c12.083-100.982 29.593-297.755 9.468-317.801l-441.562-441.602c-27.137-27.177-71.23-27.177-98.407 0.040l-295.26 295.22c-27.177 27.137-27.177 71.23 0 98.407l441.602 441.562c7.012 7.012 83.392 7.329 169.28 2.852-0.475-5.665-1.703-11.013-1.703-16.797 0-22.027 4.873-56.176 9.983-86.205-8.993-13.351-14.262-29.395-14.262-46.708 0-46.113 37.398-83.511 83.511-83.511s83.511 37.398 83.511 83.511c0 28.405-14.222 53.442-35.892 68.496-4.437 26.424-8.002 51.937-8.002 64.416 0 2.694 0.555 5.19 0.792 7.844 10.578-1.109 20.997-2.258 30.861-3.486 58.355-7.171 58.949-7.052 66.080-66.238zM611.12 385.288c-6.854 19.055-18.263 41.914-43.023 68.219l33.515 33.555-37.318 37.279-36.17-36.209c-48.411 33.159-98.327 30.465-132.199-3.407-36.922-36.922-28.207-83.788-1.109-138.261 18.62-37.715 22.027-59.424 7.567-73.884-14.856-14.856-38.824-8.399-60.573 13.311-24.721 24.721-39.22 55.265-46.43 80.025l-56.017-33.198c6.497-22.423 24.007-54.393 48.728-80.698l-36.526-36.566 37.279-37.318 39.26 39.22c51.778-36.526 103.993-31.614 137.864 2.258 34.664 34.743 37.715 73.567 8.002 135.25-20.6 44.212-25.552 65.921-13.351 78.084 10.696 10.696 29.712 13.747 54.472-11.013 27.454-27.454 36.566-54.116 41.518-68.219l54.512 31.574z" />
<glyph unicode="&#xe935;" glyph-name="rating" d="M601.481 394.581c-5.759-2.006-10.010-6.932-11.152-12.922s0.998-12.135 5.615-16.119c4.617-3.984 11.008-5.203 16.767-3.197 141.749 49.126 227.304 193.426 202.395 341.363s-153 256.265-303.020 256.265-278.111-108.327-303.020-256.265c-24.909-147.938 60.646-292.237 202.395-341.363 8.907-3.096 18.638 1.614 21.734 10.522s-1.614 18.638-10.522 21.734c-29.507 10.298-57.022 25.596-81.34 45.227v18.586c-0.070 53.239 32.712 101.002 82.415 120.081 52.872-37.458 123.631-37.458 176.503 0 49.703-19.079 82.485-66.842 82.415-120.081v-18.654c-24.275-19.596-51.737-34.877-81.186-45.175zM392.533 704c0 65.98 53.487 119.467 119.467 119.467s119.467-53.487 119.467-119.467-53.487-119.467-119.467-119.467c-65.948 0.075-119.391 53.518-119.467 119.467zM628.053 603.767c53.658 61.973 49.195 155.16-10.14 211.721s-152.629 56.561-211.964 0c-59.335-56.561-63.798-149.749-10.14-211.721-50.254-25.694-83.588-75.611-88.064-131.874-97.29 109.647-90.65 276.55 15.043 378.122s272.728 101.572 378.421 0c105.693-101.572 112.333-268.474 15.043-378.122-4.491 56.297-37.885 106.226-88.201 131.874zM365.227-57.361c10.436-7.701 24.352-8.768 35.84-2.748l111.053 57.702 111.036-57.719c11.515-5.986 25.428-4.925 35.902 2.739s15.694 20.605 13.472 33.391l-21.094 121.719 89.259 86.033c9.377 9.040 12.792 22.629 8.803 35.028s-14.687 21.447-27.576 23.323l-123.904 17.801-55.296 111.155c-5.741 11.64-17.622 18.982-30.601 18.91-12.94 0.047-24.781-7.267-30.532-18.859l-55.603-111.206-123.631-17.783c-12.897-1.871-23.602-10.923-27.593-23.328s-0.568-26.001 8.819-35.040l89.293-86.033-21.111-121.719c-2.255-12.781 2.971-25.73 13.466-33.365zM307.2 208.333l132.471 19.063c5.535 0.795 10.33 4.25 12.834 9.25l59.597 119.194 59.341-119.159c2.499-5.017 7.303-8.488 12.851-9.284l132.745-19.063-95.812-92.314c-4.076-3.931-5.936-9.628-4.966-15.206l22.647-130.679-118.903 61.798c-4.932 2.562-10.803 2.562-15.735 0l-118.921-61.798 22.647 130.645c0.97 5.579-0.891 11.275-4.966 15.206zM80.213 205.278l-16.674-96.41c-1.609-8.988 0.84-18.228 6.692-25.239s14.504-11.073 23.636-11.096c4.986 0.008 9.896 1.214 14.319 3.516l88.081 45.841 88.030-45.943c5.408-2.817 11.909-2.535 17.052 0.741s8.149 9.046 7.885 15.138c-0.265 6.092-3.759 11.581-9.168 14.398l-95.915 50.005c-4.941 2.574-10.828 2.574-15.77 0l-90.061-46.916 17.067 98.987c0.97 5.579-0.891 11.275-4.966 15.206l-72.482 69.973 100.301 14.404c5.539 0.798 10.334 4.261 12.834 9.267l45.193 90.351 45.022-90.334c2.502-5.022 7.313-8.493 12.868-9.284l107.162-15.36c9.331-1.334 17.977 5.15 19.311 14.481s-5.15 17.977-14.481 19.311l-98.304 14.080-43.981 88.269c-5.21 10.501-15.942 17.122-27.665 17.067h-0.102c-11.595 0.023-22.19-6.559-27.307-16.964l-44.203-88.371-98.014-14.063c-11.734-1.564-21.525-9.732-25.169-20.995s-0.492-23.618 8.102-31.758zM1022.464 305.391c-3.563 11.205-13.265 19.352-24.917 20.924l-98.133 14.080-44.1 88.354c-5.1 10.433-15.694 17.054-27.307 17.067h-0.102c-11.729 0.062-22.469-6.56-27.682-17.067l-43.964-88.252-98.321-14.080c-6.036-0.863-11.154-4.88-13.425-10.539s-1.35-12.1 2.415-16.896 9.803-7.219 15.84-6.357l107.179 15.36c5.555 0.791 10.366 4.262 12.868 9.284l44.919 90.231 45.107-90.351c2.5-5.006 7.296-8.469 12.834-9.267l100.25-14.387-72.482-69.973c-4.076-3.931-5.936-9.628-4.966-15.206l17.152-98.987-90.061 46.967c-4.941 2.574-10.828 2.574-15.77 0l-95.915-50.005c-5.408-2.817-8.903-8.305-9.168-14.398s2.741-11.863 7.885-15.138c5.144-3.275 11.644-3.558 17.052-0.741l88.081 45.875 88.064-45.943c10.424-5.416 23.018-4.444 32.487 2.508s14.17 18.676 12.125 30.243l-16.623 96.58 70.758 68.267c8.563 8.198 11.645 20.592 7.919 31.846zM418.133 155.494c0.823 0.004 1.644 0.067 2.458 0.188l64.188 9.233c5.535 0.795 10.33 4.25 12.834 9.25l29.696 59.375c4.242 8.436 0.841 18.713-7.595 22.955s-18.713 0.841-22.955-7.595l-25.6-51.388-55.381-7.97c-8.871-1.264-15.254-9.173-14.616-18.111s8.079-15.86 17.039-15.852z" />
<glyph unicode="&#xe936;" glyph-name="right" d="M888.582 832.443l135.418-135.422-633.467-633.467-390.533 390.524 135.418 135.422 255.115-255.106 498.049 498.049z" />
<glyph unicode="&#xe937;" glyph-name="route" d="M189.488 367.632c-17.634-10.46-29.488-29.684-29.488-51.632 0-33.084 26.916-60 60-60 26.072 0 48.304 16.722 56.56 40h155.44c33.084 0 60-26.916 60-60s-26.916-60-60-60h-240c-55.14 0-100-44.86-100-100s44.86-100 100-100h200c11.046 0 20 8.954 20 20s-8.954 20-20 20h-200c-33.084 0-60 26.916-60 60s26.916 60 60 60h240c55.14 0 100 44.86 100 100s-44.86 100-100 100h-155.44c-4.73 13.336-14.046 24.514-26.048 31.632l152.756 250.632c24.030 36.12 36.732 78.208 36.732 121.736 0 121.308-98.692 220-220 220s-220-98.692-220-220c0-43.528 12.702-85.616 36.732-121.736zM220 296c-11.028 0-20 8.972-20 20s8.972 20 20 20 20-8.972 20-20-8.972-20-20-20zM220 920c99.252 0 180-80.748 180-180 0-35.736-10.454-70.27-30.23-99.87-0.154-0.23-0.304-0.464-0.448-0.702l-149.322-244.998s-149.616 245.47-149.77 245.7c-19.776 29.6-30.23 64.134-30.23 99.87 0 99.252 80.748 180 180 180zM220 640c55.14 0 100 44.86 100 100s-44.86 100-100 100-100-44.86-100-100 44.86-100 100-100zM220 800c33.084 0 60-26.916 60-60s-26.916-60-60-60-60 26.916-60 60 26.916 60 60 60zM804 628c-121.308 0-220-98.692-220-220 0-43.598 12.742-85.75 36.848-121.908l152.186-238.72c-11.784-7.13-20.922-18.202-25.592-31.372h-175.442c-11.046 0-20-8.954-20-20s8.954-20 20-20h175.44c8.256-23.278 30.486-40 56.56-40 33.084 0 60 26.916 60 60 0 21.762-11.646 40.852-29.032 51.372l152.186 238.72c24.104 36.158 36.846 78.31 36.846 121.908 0 121.308-98.692 220-220 220zM804-24c-11.028 0-20 8.972-20 20s8.972 20 20 20 20-8.972 20-20-8.972-20-20-20zM953.77 308.13c-0.078-0.12-149.77-234.924-149.77-234.924s-149.692 234.806-149.77 234.924c-19.776 29.6-30.23 64.134-30.23 99.87 0 99.252 80.748 180 180 180s180-80.748 180-180c0-35.736-10.454-70.27-30.23-99.87zM804 508c-55.14 0-100-44.86-100-100s44.86-100 100-100 100 44.86 100 100-44.86 100-100 100zM804 348c-33.084 0-60 26.916-60 60s26.916 60 60 60 60-26.916 60-60-26.916-60-60-60zM502-4c0-11.046-8.954-20-20-20s-20 8.954-20 20c0 11.046 8.954 20 20 20s20-8.954 20-20z" />
<glyph unicode="&#xe938;" glyph-name="seat-belt" d="M10.069 44.049l97.98-97.98c6.226-6.212 14.82-10.053 24.311-10.053s18.085 3.841 24.312 10.053l98.149 98.149 13.124-13.141c15.454-15.417 36.783-24.951 60.339-24.951s44.886 9.533 60.341 24.952l197.016 197.016c9.262 9.265 14.991 22.063 14.991 36.198s-5.729 26.934-14.991 36.199l-221.15 221.167c-9.265 9.262-22.063 14.991-36.198 14.991s-26.934-5.729-36.199-14.991l-197.017-197.035c-15.417-15.454-24.951-36.783-24.951-60.339s9.533-44.886 24.952-60.341l-0.002 0.002 13.141-13.124-98.167-98.167c-6.198-6.227-10.029-14.813-10.029-24.294 0-9.49 3.838-18.083 10.047-24.312l-0.001 0.001zM524.595 313.276l-24.695-24.661c-3.221-3.082-7.597-4.979-12.416-4.979s-9.195 1.897-12.423 4.985l0.007-0.006-122.453 122.453c-3.186 3.177-5.157 7.57-5.157 12.425s1.971 9.248 5.157 12.424v0l24.678 24.678zM119.211 300.493l197.018 197.001c3.088 3.087 7.354 4.997 12.066 4.997s8.978-1.91 12.066-4.997l12.783-12.783-24.661-24.661c-9.362-9.356-15.153-22.284-15.153-36.565s5.791-27.209 15.152-36.565l122.454-122.454c9.351-9.365 22.278-15.158 36.557-15.158s27.205 5.793 36.556 15.158l24.679 24.662 12.766-12.783c3.087-3.088 4.997-7.354 4.997-12.066s-1.91-8.978-4.997-12.066l-197-197c-9.266-9.267-22.067-14.999-36.207-14.999s-26.941 5.732-36.207 14.999l-172.868 172.868c-9.267 9.266-14.999 22.067-14.999 36.207s5.732 26.941 14.999 36.207v0zM132.352 166.69l98.321-98.321-98.492-98.236-98.048 98.406zM817.886 949.931c-6.299 6.022-14.855 9.728-24.277 9.728s-17.978-3.706-24.291-9.741l-98.154-98.137-12.39 12.407c-12.504 12.466-29.757 20.173-48.811 20.173s-36.307-7.708-48.812-20.175l-24.489-24.506c-12.493-12.488-20.221-29.742-20.221-48.802s7.728-36.314 20.221-48.802v0l7.253-7.236v-83.831l-92.996-92.979c-9.336-9.365-15.109-22.287-15.109-36.557s5.773-27.192 15.11-36.558l97.979-97.979c9.361-9.344 22.284-15.123 36.557-15.123s27.196 5.778 36.558 15.124l93.081 92.978h83.831l7.236-7.253c12.488-12.493 29.742-20.221 48.802-20.221s36.314 7.728 48.802 20.221v0l24.508 24.491c12.466 12.504 20.173 29.757 20.173 48.811s-7.708 36.307-20.175 48.812l0.002-0.002-12.407 12.39 98.15 98.167c6.22 6.21 10.068 14.794 10.068 24.277s-3.848 18.067-10.068 24.277v0zM707.925 514.048c-4.712-0.001-8.978-1.912-12.066-5l-97.963-97.963c-3.182-3.174-7.574-5.136-12.425-5.136s-9.242 1.962-12.425 5.137v0l-97.98 97.98c-3.174 3.182-5.136 7.574-5.136 12.425s1.962 9.242 5.137 12.425v0l97.98 97.963c3.089 3.088 4.999 7.354 5.001 12.066v0 56.764l186.658-186.658zM904.055 570.641c6.303-6.321 10.201-15.045 10.201-24.678s-3.897-18.357-10.201-24.679l-24.507-24.49c-6.396-6.123-15.088-9.892-24.661-9.892s-18.265 3.769-24.674 9.905l0.013-0.012-269.431 269.431c-6.318 6.308-10.226 15.028-10.226 24.661s3.908 18.353 10.226 24.661v0l24.491 24.508c6.321 6.303 15.045 10.201 24.678 10.201s18.357-3.897 24.679-10.201l-0.001 0.001 12.39-12.407-12.459-12.459c-6.196-6.221-10.026-14.802-10.026-24.277s3.83-18.056 10.027-24.278l196.078-196.061c6.221-6.196 14.802-10.026 24.277-10.026s18.056 3.83 24.278 10.027l12.441 12.441zM989.867 729.463l-135.031-134.827-196.062 196.403 134.98 134.827 196.113-196.113zM573.44 582.571l-36.71-36.864c-6.195-6.218-10.024-14.796-10.024-24.269s3.83-18.050 10.025-24.27l24.438-24.438c6.218-6.19 14.792-10.016 24.26-10.016s18.043 3.826 24.262 10.017l36.88 36.709c6.19 6.22 10.017 14.798 10.017 24.269s-3.827 18.049-10.019 24.27l-24.609 24.609c-6.222 6.172-14.792 9.986-24.252 9.986-9.469 0-18.045-3.821-24.271-10.005l0.002 0.002zM622.473 533.897c0.049-0.034 0.080-0.090 0.080-0.154s-0.031-0.119-0.079-0.153h-0.001l-37.086-36.727-24.405 24.747 36.983 36.864z" />
<glyph unicode="&#xe939;" glyph-name="seat-belt-1" d="M230.673 68.369l-98.321 98.321-98.15-98.15 97.98-98.338zM578.048 643.925c-0.001-4.712-1.912-8.978-5-12.066l-97.98-97.963c-3.174-3.182-5.136-7.574-5.136-12.425s1.962-9.242 5.137-12.425v0l97.98-97.98c3.182-3.174 7.574-5.136 12.425-5.136s9.242 1.962 12.425 5.137v0l97.963 97.963c3.088 3.089 7.354 4.999 12.066 5.001h56.781l-186.658 186.675zM621.995 582.622l24.61-24.61c6.19-6.22 10.017-14.798 10.017-24.269s-3.827-18.049-10.019-24.27l0.001 0.001-36.881-36.727c-6.218-6.19-14.792-10.016-24.26-10.016s-18.043 3.826-24.262 10.017l-24.438 24.438c-6.195 6.218-10.024 14.796-10.024 24.269s3.83 18.050 10.025 24.27l36.709 36.863c6.225 6.187 14.805 10.012 24.277 10.012 9.456 0 18.022-3.811 24.246-9.98l-0.003 0.002zM891.648 583.031l-12.442-12.442c-6.221-6.196-14.802-10.026-24.277-10.026s-18.056 3.83-24.278 10.027l-196.061 196.044c-6.196 6.221-10.026 14.802-10.026 24.277s3.83 18.056 10.027 24.278l12.458 12.458-12.39 12.407c-6.321 6.303-15.045 10.201-24.678 10.201s-18.357-3.897-24.679-10.201l-24.507-24.507c-6.318-6.308-10.226-15.028-10.226-24.661s3.908-18.353 10.226-24.661v0l269.431-269.431c6.396-6.123 15.088-9.892 24.661-9.892s18.265 3.769 24.674 9.905l-0.013-0.012 24.508 24.491c6.303 6.321 10.201 15.045 10.201 24.678s-3.897 18.357-10.201 24.679l0.001-0.001zM989.798 729.754l-196.045 196.045-135.031-134.724 196.045-196.352 135.031 134.741zM292.079 55.211c9.266-9.267 22.067-14.999 36.207-14.999s26.941 5.732 36.207 14.999l197.001 197.018c3.087 3.088 4.997 7.354 4.997 12.066s-1.91 8.978-4.997 12.066v0l-12.766 12.783-24.678-24.661c-9.351-9.365-22.278-15.158-36.557-15.158s-27.205 5.793-36.556 15.158l-122.454 122.454c-9.362 9.356-15.153 22.284-15.153 36.565s5.791 27.209 15.152 36.565l24.662 24.662-12.783 12.783c-3.088 3.087-7.354 4.997-12.066 4.997s-8.978-1.91-12.066-4.997l-197.018-197.018c-9.267-9.266-14.999-22.067-14.999-36.207s5.732-26.941 14.999-36.207v0zM347.46 423.492c0-0.019 0-0.042 0-0.066 0-4.827 1.957-9.196 5.12-12.359l122.453-122.453c3.221-3.082 7.597-4.979 12.416-4.979s9.195 1.897 12.423 4.985l-0.007-0.006 24.695 24.661-147.302 147.319-24.678-24.678c-3.163-3.163-5.12-7.532-5.12-12.359 0-0.023 0-0.046 0-0.069v0.004z" />
</font>
</defs>
</svg>
